<svg width="275" height="12" viewBox="0 0 275 12" fill="none" xmlns="http://www.w3.org/2000/svg">
<path d="M0.518 6.114C0.518 5.162 0.737333 4.308 1.176 3.552C1.624 2.796 2.226 2.208 2.982 1.788C3.74733 1.35867 4.58267 1.144 5.488 1.144C6.524 1.144 7.44333 1.40067 8.246 1.914C9.058 2.418 9.646 3.13667 10.01 4.07H8.092C7.84 3.55667 7.49 3.174 7.042 2.922C6.594 2.67 6.076 2.544 5.488 2.544C4.844 2.544 4.27 2.68867 3.766 2.978C3.262 3.26733 2.86533 3.68267 2.576 4.224C2.296 4.76533 2.156 5.39533 2.156 6.114C2.156 6.83267 2.296 7.46267 2.576 8.004C2.86533 8.54533 3.262 8.96533 3.766 9.264C4.27 9.55333 4.844 9.698 5.488 9.698C6.076 9.698 6.594 9.572 7.042 9.32C7.49 9.068 7.84 8.68533 8.092 8.172H10.01C9.646 9.10533 9.058 9.824 8.246 10.328C7.44333 10.832 6.524 11.084 5.488 11.084C4.57333 11.084 3.738 10.874 2.982 10.454C2.226 10.0247 1.624 9.432 1.176 8.676C0.737333 7.92 0.518 7.066 0.518 6.114ZM15.6281 3.16C16.2161 3.16 16.7388 3.286 17.1961 3.538C17.6628 3.79 18.0268 4.16333 18.2881 4.658C18.5588 5.15267 18.6941 5.75 18.6941 6.45V11H17.1121V6.688C17.1121 5.99733 16.9395 5.47 16.5941 5.106C16.2488 4.73267 15.7775 4.546 15.1801 4.546C14.5828 4.546 14.1068 4.73267 13.7521 5.106C13.4068 5.47 13.2341 5.99733 13.2341 6.688V11H11.6381V0.64H13.2341V4.182C13.5048 3.85533 13.8455 3.60333 14.2561 3.426C14.6761 3.24867 15.1335 3.16 15.6281 3.16ZM27.5599 6.954C27.5599 7.24333 27.5413 7.50467 27.5039 7.738H21.6099C21.6566 8.354 21.8853 8.84867 22.2959 9.222C22.7066 9.59533 23.2106 9.782 23.8079 9.782C24.6666 9.782 25.2733 9.42267 25.6279 8.704H27.3499C27.1166 9.41333 26.6919 9.99667 26.0759 10.454C25.4693 10.902 24.7133 11.126 23.8079 11.126C23.0706 11.126 22.4079 10.9627 21.8199 10.636C21.2413 10.3 20.7839 9.83333 20.4479 9.236C20.1213 8.62933 19.9579 7.92933 19.9579 7.136C19.9579 6.34267 20.1166 5.64733 20.4339 5.05C20.7606 4.44333 21.2133 3.97667 21.7919 3.65C22.3799 3.32333 23.0519 3.16 23.8079 3.16C24.5359 3.16 25.1846 3.31867 25.7539 3.636C26.3233 3.95333 26.7666 4.40133 27.0839 4.98C27.4013 5.54933 27.5599 6.20733 27.5599 6.954ZM25.8939 6.45C25.8846 5.862 25.6746 5.39067 25.2639 5.036C24.8533 4.68133 24.3446 4.504 23.7379 4.504C23.1873 4.504 22.7159 4.68133 22.3239 5.036C21.9319 5.38133 21.6986 5.85267 21.6239 6.45H25.8939ZM28.3585 7.136C28.3585 6.34267 28.5172 5.64733 28.8345 5.05C29.1612 4.44333 29.6092 3.97667 30.1785 3.65C30.7479 3.32333 31.4012 3.16 32.1385 3.16C33.0719 3.16 33.8419 3.384 34.4485 3.832C35.0645 4.27067 35.4799 4.90067 35.6945 5.722H33.9725C33.8325 5.33933 33.6085 5.04067 33.3005 4.826C32.9925 4.61133 32.6052 4.504 32.1385 4.504C31.4852 4.504 30.9625 4.73733 30.5705 5.204C30.1879 5.66133 29.9965 6.30533 29.9965 7.136C29.9965 7.96667 30.1879 8.61533 30.5705 9.082C30.9625 9.54867 31.4852 9.782 32.1385 9.782C33.0625 9.782 33.6739 9.376 33.9725 8.564H35.6945C35.4705 9.348 35.0505 9.97333 34.4345 10.44C33.8185 10.8973 33.0532 11.126 32.1385 11.126C31.4012 11.126 30.7479 10.9627 30.1785 10.636C29.6092 10.3 29.1612 9.83333 28.8345 9.236C28.5172 8.62933 28.3585 7.92933 28.3585 7.136ZM40.0971 7.15L43.6531 11H41.4971L38.6411 7.682V11H37.0451V0.64H38.6411V6.66L41.4411 3.286H43.6531L40.0971 7.15ZM51.2998 11.126C50.5718 11.126 49.9138 10.9627 49.3258 10.636C48.7378 10.3 48.2758 9.83333 47.9398 9.236C47.6038 8.62933 47.4358 7.92933 47.4358 7.136C47.4358 6.352 47.6084 5.65667 47.9538 5.05C48.2991 4.44333 48.7704 3.97667 49.3678 3.65C49.9651 3.32333 50.6324 3.16 51.3698 3.16C52.1071 3.16 52.7744 3.32333 53.3718 3.65C53.9691 3.97667 54.4404 4.44333 54.7858 5.05C55.1311 5.65667 55.3038 6.352 55.3038 7.136C55.3038 7.92 55.1264 8.61533 54.7718 9.222C54.4171 9.82867 53.9318 10.3 53.3158 10.636C52.7091 10.9627 52.0371 11.126 51.2998 11.126ZM51.2998 9.74C51.7104 9.74 52.0931 9.642 52.4478 9.446C52.8118 9.25 53.1058 8.956 53.3298 8.564C53.5538 8.172 53.6658 7.696 53.6658 7.136C53.6658 6.576 53.5584 6.10467 53.3438 5.722C53.1291 5.33 52.8444 5.036 52.4898 4.84C52.1351 4.644 51.7524 4.546 51.3418 4.546C50.9311 4.546 50.5484 4.644 50.1938 4.84C49.8484 5.036 49.5731 5.33 49.3678 5.722C49.1624 6.10467 49.0598 6.576 49.0598 7.136C49.0598 7.96667 49.2698 8.61067 49.6898 9.068C50.1191 9.516 50.6558 9.74 51.2998 9.74ZM63.6275 3.286V11H62.0315V10.09C61.7795 10.4073 61.4482 10.6593 61.0375 10.846C60.6362 11.0233 60.2068 11.112 59.7495 11.112C59.1428 11.112 58.5968 10.986 58.1115 10.734C57.6355 10.482 57.2575 10.1087 56.9775 9.614C56.7068 9.11933 56.5715 8.522 56.5715 7.822V3.286H58.1535V7.584C58.1535 8.27467 58.3262 8.80667 58.6715 9.18C59.0168 9.544 59.4882 9.726 60.0855 9.726C60.6828 9.726 61.1542 9.544 61.4995 9.18C61.8542 8.80667 62.0315 8.27467 62.0315 7.584V3.286H63.6275ZM67.3553 4.588V8.858C67.3553 9.14733 67.4206 9.35733 67.5513 9.488C67.6913 9.60933 67.9246 9.67 68.2513 9.67H69.2313V11H67.9713C67.2526 11 66.7019 10.832 66.3193 10.496C65.9366 10.16 65.7453 9.614 65.7453 8.858V4.588H64.8353V3.286H65.7453V1.368H67.3553V3.286H69.2313V4.588H67.3553ZM76.659 11.126C76.0523 11.126 75.5063 11.0187 75.021 10.804C74.545 10.58 74.167 10.2813 73.887 9.908C73.607 9.52533 73.4576 9.10067 73.439 8.634H75.091C75.119 8.96067 75.273 9.236 75.553 9.46C75.8423 9.67467 76.2016 9.782 76.631 9.782C77.079 9.782 77.4243 9.698 77.667 9.53C77.919 9.35267 78.045 9.12867 78.045 8.858C78.045 8.56867 77.905 8.354 77.625 8.214C77.3543 8.074 76.9203 7.92 76.323 7.752C75.7443 7.59333 75.273 7.43933 74.909 7.29C74.545 7.14067 74.2276 6.912 73.957 6.604C73.6956 6.296 73.565 5.89 73.565 5.386C73.565 4.97533 73.6863 4.602 73.929 4.266C74.1716 3.92067 74.517 3.65 74.965 3.454C75.4223 3.258 75.945 3.16 76.533 3.16C77.4103 3.16 78.115 3.384 78.647 3.832C79.1883 4.27067 79.4776 4.87267 79.515 5.638H77.919C77.891 5.29267 77.751 5.01733 77.499 4.812C77.247 4.60667 76.9063 4.504 76.477 4.504C76.057 4.504 75.735 4.58333 75.511 4.742C75.287 4.90067 75.175 5.11067 75.175 5.372C75.175 5.57733 75.2496 5.75 75.399 5.89C75.5483 6.03 75.7303 6.142 75.945 6.226C76.1596 6.30067 76.477 6.39867 76.897 6.52C77.457 6.66933 77.9143 6.82333 78.269 6.982C78.633 7.13133 78.9456 7.35533 79.207 7.654C79.4683 7.95267 79.6036 8.34933 79.613 8.844C79.613 9.28267 79.4916 9.67467 79.249 10.02C79.0063 10.3653 78.661 10.636 78.213 10.832C77.7743 11.028 77.2563 11.126 76.659 11.126ZM84.4435 11.126C83.7155 11.126 83.0575 10.9627 82.4695 10.636C81.8815 10.3 81.4195 9.83333 81.0835 9.236C80.7475 8.62933 80.5795 7.92933 80.5795 7.136C80.5795 6.352 80.7522 5.65667 81.0975 5.05C81.4428 4.44333 81.9142 3.97667 82.5115 3.65C83.1088 3.32333 83.7762 3.16 84.5135 3.16C85.2508 3.16 85.9182 3.32333 86.5155 3.65C87.1128 3.97667 87.5842 4.44333 87.9295 5.05C88.2748 5.65667 88.4475 6.352 88.4475 7.136C88.4475 7.92 88.2702 8.61533 87.9155 9.222C87.5608 9.82867 87.0755 10.3 86.4595 10.636C85.8528 10.9627 85.1808 11.126 84.4435 11.126ZM84.4435 9.74C84.8542 9.74 85.2368 9.642 85.5915 9.446C85.9555 9.25 86.2495 8.956 86.4735 8.564C86.6975 8.172 86.8095 7.696 86.8095 7.136C86.8095 6.576 86.7022 6.10467 86.4875 5.722C86.2728 5.33 85.9882 5.036 85.6335 4.84C85.2788 4.644 84.8962 4.546 84.4855 4.546C84.0748 4.546 83.6922 4.644 83.3375 4.84C82.9922 5.036 82.7168 5.33 82.5115 5.722C82.3062 6.10467 82.2035 6.576 82.2035 7.136C82.2035 7.96667 82.4135 8.61067 82.8335 9.068C83.2628 9.516 83.7995 9.74 84.4435 9.74ZM99.1232 3.16C99.7299 3.16 100.271 3.286 100.747 3.538C101.233 3.79 101.611 4.16333 101.881 4.658C102.161 5.15267 102.301 5.75 102.301 6.45V11H100.719V6.688C100.719 5.99733 100.547 5.47 100.201 5.106C99.8559 4.73267 99.3846 4.546 98.7872 4.546C98.1899 4.546 97.7139 4.73267 97.3592 5.106C97.0139 5.47 96.8412 5.99733 96.8412 6.688V11H95.2592V6.688C95.2592 5.99733 95.0866 5.47 94.7412 5.106C94.3959 4.73267 93.9246 4.546 93.3272 4.546C92.7299 4.546 92.2539 4.73267 91.8992 5.106C91.5539 5.47 91.3812 5.99733 91.3812 6.688V11H89.7852V3.286H91.3812V4.168C91.6426 3.85067 91.9739 3.60333 92.3752 3.426C92.7766 3.24867 93.2059 3.16 93.6632 3.16C94.2792 3.16 94.8299 3.29067 95.3152 3.552C95.8006 3.81333 96.1739 4.19133 96.4352 4.686C96.6686 4.21933 97.0326 3.85067 97.5272 3.58C98.0219 3.3 98.5539 3.16 99.1232 3.16ZM111.162 6.954C111.162 7.24333 111.143 7.50467 111.106 7.738H105.212C105.259 8.354 105.487 8.84867 105.898 9.222C106.309 9.59533 106.813 9.782 107.41 9.782C108.269 9.782 108.875 9.42267 109.23 8.704H110.952C110.719 9.41333 110.294 9.99667 109.678 10.454C109.071 10.902 108.315 11.126 107.41 11.126C106.673 11.126 106.01 10.9627 105.422 10.636C104.843 10.3 104.386 9.83333 104.05 9.236C103.723 8.62933 103.56 7.92933 103.56 7.136C103.56 6.34267 103.719 5.64733 104.036 5.05C104.363 4.44333 104.815 3.97667 105.394 3.65C105.982 3.32333 106.654 3.16 107.41 3.16C108.138 3.16 108.787 3.31867 109.356 3.636C109.925 3.95333 110.369 4.40133 110.686 4.98C111.003 5.54933 111.162 6.20733 111.162 6.954ZM109.496 6.45C109.487 5.862 109.277 5.39067 108.866 5.036C108.455 4.68133 107.947 4.504 107.34 4.504C106.789 4.504 106.318 4.68133 105.926 5.036C105.534 5.38133 105.301 5.85267 105.226 6.45H109.496ZM119.235 11.126C118.507 11.126 117.849 10.9627 117.261 10.636C116.673 10.3 116.211 9.83333 115.875 9.236C115.539 8.62933 115.371 7.92933 115.371 7.136C115.371 6.352 115.544 5.65667 115.889 5.05C116.235 4.44333 116.706 3.97667 117.303 3.65C117.901 3.32333 118.568 3.16 119.305 3.16C120.043 3.16 120.71 3.32333 121.307 3.65C121.905 3.97667 122.376 4.44333 122.721 5.05C123.067 5.65667 123.239 6.352 123.239 7.136C123.239 7.92 123.062 8.61533 122.707 9.222C122.353 9.82867 121.867 10.3 121.251 10.636C120.645 10.9627 119.973 11.126 119.235 11.126ZM119.235 9.74C119.646 9.74 120.029 9.642 120.383 9.446C120.747 9.25 121.041 8.956 121.265 8.564C121.489 8.172 121.601 7.696 121.601 7.136C121.601 6.576 121.494 6.10467 121.279 5.722C121.065 5.33 120.78 5.036 120.425 4.84C120.071 4.644 119.688 4.546 119.277 4.546C118.867 4.546 118.484 4.644 118.129 4.84C117.784 5.036 117.509 5.33 117.303 5.722C117.098 6.10467 116.995 6.576 116.995 7.136C116.995 7.96667 117.205 8.61067 117.625 9.068C118.055 9.516 118.591 9.74 119.235 9.74ZM127.811 4.588H126.383V11H124.773V4.588H123.863V3.286H124.773V2.74C124.773 1.85333 125.007 1.20933 125.473 0.807999C125.949 0.397333 126.691 0.192 127.699 0.192V1.522C127.214 1.522 126.873 1.61533 126.677 1.802C126.481 1.97933 126.383 2.292 126.383 2.74V3.286H127.811V4.588ZM134.244 4.588V8.858C134.244 9.14733 134.31 9.35733 134.44 9.488C134.58 9.60933 134.814 9.67 135.14 9.67H136.12V11H134.86C134.142 11 133.591 10.832 133.208 10.496C132.826 10.16 132.634 9.614 132.634 8.858V4.588H131.724V3.286H132.634V1.368H134.244V3.286H136.12V4.588H134.244ZM141.341 3.16C141.929 3.16 142.452 3.286 142.909 3.538C143.376 3.79 143.74 4.16333 144.001 4.658C144.272 5.15267 144.407 5.75 144.407 6.45V11H142.825V6.688C142.825 5.99733 142.653 5.47 142.307 5.106C141.962 4.73267 141.491 4.546 140.893 4.546C140.296 4.546 139.82 4.73267 139.465 5.106C139.12 5.47 138.947 5.99733 138.947 6.688V11H137.351V0.64H138.947V4.182C139.218 3.85533 139.559 3.60333 139.969 3.426C140.389 3.24867 140.847 3.16 141.341 3.16ZM153.273 6.954C153.273 7.24333 153.254 7.50467 153.217 7.738H147.323C147.37 8.354 147.598 8.84867 148.009 9.222C148.42 9.59533 148.924 9.782 149.521 9.782C150.38 9.782 150.986 9.42267 151.341 8.704H153.063C152.83 9.41333 152.405 9.99667 151.789 10.454C151.182 10.902 150.426 11.126 149.521 11.126C148.784 11.126 148.121 10.9627 147.533 10.636C146.954 10.3 146.497 9.83333 146.161 9.236C145.834 8.62933 145.671 7.92933 145.671 7.136C145.671 6.34267 145.83 5.64733 146.147 5.05C146.474 4.44333 146.926 3.97667 147.505 3.65C148.093 3.32333 148.765 3.16 149.521 3.16C150.249 3.16 150.898 3.31867 151.467 3.636C152.036 3.95333 152.48 4.40133 152.797 4.98C153.114 5.54933 153.273 6.20733 153.273 6.954ZM151.607 6.45C151.598 5.862 151.388 5.39067 150.977 5.036C150.566 4.68133 150.058 4.504 149.451 4.504C148.9 4.504 148.429 4.68133 148.037 5.036C147.645 5.38133 147.412 5.85267 147.337 6.45H151.607ZM168.36 3.286L165.966 11H164.286L162.732 5.302L161.178 11H159.498L157.09 3.286H158.714L160.324 9.488L161.962 3.286H163.628L165.196 9.46L166.792 3.286H168.36ZM172.659 11.126C171.931 11.126 171.273 10.9627 170.685 10.636C170.097 10.3 169.635 9.83333 169.299 9.236C168.963 8.62933 168.795 7.92933 168.795 7.136C168.795 6.352 168.968 5.65667 169.313 5.05C169.659 4.44333 170.13 3.97667 170.727 3.65C171.325 3.32333 171.992 3.16 172.729 3.16C173.467 3.16 174.134 3.32333 174.731 3.65C175.329 3.97667 175.8 4.44333 176.145 5.05C176.491 5.65667 176.663 6.352 176.663 7.136C176.663 7.92 176.486 8.61533 176.131 9.222C175.777 9.82867 175.291 10.3 174.675 10.636C174.069 10.9627 173.397 11.126 172.659 11.126ZM172.659 9.74C173.07 9.74 173.453 9.642 173.807 9.446C174.171 9.25 174.465 8.956 174.689 8.564C174.913 8.172 175.025 7.696 175.025 7.136C175.025 6.576 174.918 6.10467 174.703 5.722C174.489 5.33 174.204 5.036 173.849 4.84C173.495 4.644 173.112 4.546 172.701 4.546C172.291 4.546 171.908 4.644 171.553 4.84C171.208 5.036 170.933 5.33 170.727 5.722C170.522 6.10467 170.419 6.576 170.419 7.136C170.419 7.96667 170.629 8.61067 171.049 9.068C171.479 9.516 172.015 9.74 172.659 9.74ZM179.597 4.406C179.83 4.014 180.138 3.71067 180.521 3.496C180.913 3.272 181.375 3.16 181.907 3.16V4.812H181.501C180.876 4.812 180.4 4.97067 180.073 5.288C179.756 5.60533 179.597 6.156 179.597 6.94V11H178.001V3.286H179.597V4.406ZM186.186 7.15L189.742 11H187.586L184.73 7.682V11H183.134V0.64H184.73V6.66L187.53 3.286H189.742L186.186 7.15ZM193.446 11.126C192.839 11.126 192.293 11.0187 191.808 10.804C191.332 10.58 190.954 10.2813 190.674 9.908C190.394 9.52533 190.245 9.10067 190.226 8.634H191.878C191.906 8.96067 192.06 9.236 192.34 9.46C192.629 9.67467 192.989 9.782 193.418 9.782C193.866 9.782 194.211 9.698 194.454 9.53C194.706 9.35267 194.832 9.12867 194.832 8.858C194.832 8.56867 194.692 8.354 194.412 8.214C194.141 8.074 193.707 7.92 193.11 7.752C192.531 7.59333 192.06 7.43933 191.696 7.29C191.332 7.14067 191.015 6.912 190.744 6.604C190.483 6.296 190.352 5.89 190.352 5.386C190.352 4.97533 190.473 4.602 190.716 4.266C190.959 3.92067 191.304 3.65 191.752 3.454C192.209 3.258 192.732 3.16 193.32 3.16C194.197 3.16 194.902 3.384 195.434 3.832C195.975 4.27067 196.265 4.87267 196.302 5.638H194.706C194.678 5.29267 194.538 5.01733 194.286 4.812C194.034 4.60667 193.693 4.504 193.264 4.504C192.844 4.504 192.522 4.58333 192.298 4.742C192.074 4.90067 191.962 5.11067 191.962 5.372C191.962 5.57733 192.037 5.75 192.186 5.89C192.335 6.03 192.517 6.142 192.732 6.226C192.947 6.30067 193.264 6.39867 193.684 6.52C194.244 6.66933 194.701 6.82333 195.056 6.982C195.42 7.13133 195.733 7.35533 195.994 7.654C196.255 7.95267 196.391 8.34933 196.4 8.844C196.4 9.28267 196.279 9.67467 196.036 10.02C195.793 10.3653 195.448 10.636 195 10.832C194.561 11.028 194.043 11.126 193.446 11.126ZM202.877 1.27V11H201.281V1.27H202.877ZM212.119 3.16C212.707 3.16 213.23 3.286 213.687 3.538C214.154 3.79 214.518 4.16333 214.779 4.658C215.05 5.15267 215.185 5.75 215.185 6.45V11H213.603V6.688C213.603 5.99733 213.431 5.47 213.085 5.106C212.74 4.73267 212.269 4.546 211.671 4.546C211.074 4.546 210.598 4.73267 210.243 5.106C209.898 5.47 209.725 5.99733 209.725 6.688V11H208.129V0.64H209.725V4.182C209.996 3.85533 210.337 3.60333 210.747 3.426C211.167 3.24867 211.625 3.16 212.119 3.16ZM216.449 7.108C216.449 6.33333 216.608 5.64733 216.925 5.05C217.252 4.45267 217.69 3.99067 218.241 3.664C218.801 3.328 219.417 3.16 220.089 3.16C220.696 3.16 221.223 3.28133 221.671 3.524C222.128 3.75733 222.492 4.05133 222.763 4.406V3.286H224.373V11H222.763V9.852C222.492 10.216 222.124 10.5193 221.657 10.762C221.19 11.0047 220.658 11.126 220.061 11.126C219.398 11.126 218.792 10.958 218.241 10.622C217.69 10.2767 217.252 9.80067 216.925 9.194C216.608 8.578 216.449 7.88267 216.449 7.108ZM222.763 7.136C222.763 6.604 222.651 6.142 222.427 5.75C222.212 5.358 221.928 5.05933 221.573 4.854C221.218 4.64867 220.836 4.546 220.425 4.546C220.014 4.546 219.632 4.64867 219.277 4.854C218.922 5.05 218.633 5.344 218.409 5.736C218.194 6.11867 218.087 6.576 218.087 7.108C218.087 7.64 218.194 8.10667 218.409 8.508C218.633 8.90933 218.922 9.21733 219.277 9.432C219.641 9.63733 220.024 9.74 220.425 9.74C220.836 9.74 221.218 9.63733 221.573 9.432C221.928 9.22667 222.212 8.928 222.427 8.536C222.651 8.13467 222.763 7.668 222.763 7.136ZM229.211 9.572L231.395 3.286H233.089L230.149 11H228.245L225.319 3.286H227.027L229.211 9.572ZM241.126 6.954C241.126 7.24333 241.107 7.50467 241.07 7.738H235.176C235.222 8.354 235.451 8.84867 235.862 9.222C236.272 9.59533 236.776 9.782 237.374 9.782C238.232 9.782 238.839 9.42267 239.194 8.704H240.916C240.682 9.41333 240.258 9.99667 239.642 10.454C239.035 10.902 238.279 11.126 237.374 11.126C236.636 11.126 235.974 10.9627 235.386 10.636C234.807 10.3 234.35 9.83333 234.014 9.236C233.687 8.62933 233.524 7.92933 233.524 7.136C233.524 6.34267 233.682 5.64733 234 5.05C234.326 4.44333 234.779 3.97667 235.358 3.65C235.946 3.32333 236.618 3.16 237.374 3.16C238.102 3.16 238.75 3.31867 239.32 3.636C239.889 3.95333 240.332 4.40133 240.65 4.98C240.967 5.54933 241.126 6.20733 241.126 6.954ZM239.46 6.45C239.45 5.862 239.24 5.39067 238.83 5.036C238.419 4.68133 237.91 4.504 237.304 4.504C236.753 4.504 236.282 4.68133 235.89 5.036C235.498 5.38133 235.264 5.85267 235.19 6.45H239.46ZM247.449 4.434C247.72 4.06067 248.088 3.75733 248.555 3.524C249.031 3.28133 249.558 3.16 250.137 3.16C250.818 3.16 251.434 3.32333 251.985 3.65C252.536 3.97667 252.97 4.44333 253.287 5.05C253.604 5.64733 253.763 6.33333 253.763 7.108C253.763 7.88267 253.604 8.578 253.287 9.194C252.97 9.80067 252.531 10.2767 251.971 10.622C251.42 10.958 250.809 11.126 250.137 11.126C249.54 11.126 249.008 11.0093 248.541 10.776C248.084 10.5427 247.72 10.244 247.449 9.88V11H245.853V0.64H247.449V4.434ZM252.139 7.108C252.139 6.576 252.027 6.11867 251.803 5.736C251.588 5.344 251.299 5.05 250.935 4.854C250.58 4.64867 250.198 4.546 249.787 4.546C249.386 4.546 249.003 4.64867 248.639 4.854C248.284 5.05933 247.995 5.358 247.771 5.75C247.556 6.142 247.449 6.604 247.449 7.136C247.449 7.668 247.556 8.13467 247.771 8.536C247.995 8.928 248.284 9.22667 248.639 9.432C249.003 9.63733 249.386 9.74 249.787 9.74C250.198 9.74 250.58 9.63733 250.935 9.432C251.299 9.21733 251.588 8.90933 251.803 8.508C252.027 8.10667 252.139 7.64 252.139 7.108ZM262.087 3.286V11H260.491V10.09C260.239 10.4073 259.908 10.6593 259.497 10.846C259.096 11.0233 258.667 11.112 258.209 11.112C257.603 11.112 257.057 10.986 256.571 10.734C256.095 10.482 255.717 10.1087 255.437 9.614C255.167 9.11933 255.031 8.522 255.031 7.822V3.286H256.613V7.584C256.613 8.27467 256.786 8.80667 257.131 9.18C257.477 9.544 257.948 9.726 258.545 9.726C259.143 9.726 259.614 9.544 259.959 9.18C260.314 8.80667 260.491 8.27467 260.491 7.584V3.286H262.087ZM264.765 2.264C264.476 2.264 264.233 2.166 264.037 1.97C263.841 1.774 263.743 1.53133 263.743 1.242C263.743 0.952666 263.841 0.71 264.037 0.514C264.233 0.318 264.476 0.219999 264.765 0.219999C265.045 0.219999 265.283 0.318 265.479 0.514C265.675 0.71 265.773 0.952666 265.773 1.242C265.773 1.53133 265.675 1.774 265.479 1.97C265.283 2.166 265.045 2.264 264.765 2.264ZM265.549 3.286V11H263.953V3.286H265.549ZM269.001 0.64V11H267.405V0.64H269.001ZM272.718 4.588V8.858C272.718 9.14733 272.783 9.35733 272.914 9.488C273.054 9.60933 273.287 9.67 273.614 9.67H274.594V11H273.334C272.615 11 272.065 10.832 271.682 10.496C271.299 10.16 271.108 9.614 271.108 8.858V4.588H270.198V3.286H271.108V1.368H272.718V3.286H274.594V4.588H272.718Z" fill="black" fill-opacity="0.5"/>
</svg>
