<svg width="24" height="24" viewBox="0 0 24 24" fill="none" xmlns="http://www.w3.org/2000/svg">
<rect width="24" height="24" fill="black"/>
<path d="M13.026 19.24C11.5993 19.24 10.306 18.9333 9.14602 18.32C7.99935 17.6933 7.09268 16.8333 6.42602 15.74C5.77268 14.6333 5.44602 13.3867 5.44602 12C5.44602 10.6133 5.77268 9.37333 6.42602 8.28C7.09268 7.17333 7.99935 6.31333 9.14602 5.7C10.306 5.07333 11.606 4.76 13.046 4.76C14.2593 4.76 15.3527 4.97333 16.326 5.4C17.3127 5.82667 18.1393 6.44 18.806 7.24L16.726 9.16C15.7793 8.06667 14.606 7.52 13.206 7.52C12.3393 7.52 11.566 7.71333 10.886 8.1C10.206 8.47333 9.67268 9 9.28602 9.68C8.91268 10.36 8.72602 11.1333 8.72602 12C8.72602 12.8667 8.91268 13.64 9.28602 14.32C9.67268 15 10.206 15.5333 10.886 15.92C11.566 16.2933 12.3393 16.48 13.206 16.48C14.606 16.48 15.7793 15.9267 16.726 14.82L18.806 16.74C18.1393 17.5533 17.3127 18.1733 16.326 18.6C15.3393 19.0267 14.2393 19.24 13.026 19.24Z" fill="white"/>
</svg>
