<svg width="521" height="133" viewBox="0 0 521 133" fill="none" xmlns="http://www.w3.org/2000/svg">
<path d="M70.32 31.6V88H54.64V56.88L44 88H30.88L20.16 56.64V88H4.48V31.6H23.44L37.6 68.24L51.44 31.6H70.32ZM121.886 65.04C121.886 66.2667 121.806 67.4933 121.646 68.72H91.9656C92.1256 71.1733 92.7923 73.0133 93.9656 74.24C95.1923 75.4133 96.739 76 98.6056 76C101.219 76 103.086 74.8267 104.206 72.48H120.926C120.232 75.5733 118.872 78.3467 116.846 80.8C114.872 83.2 112.366 85.0933 109.326 86.48C106.286 87.8667 102.926 88.56 99.2456 88.56C94.819 88.56 90.8723 87.6267 87.4056 85.76C83.9923 83.8933 81.299 81.2267 79.3256 77.76C77.4056 74.2933 76.4456 70.2133 76.4456 65.52C76.4456 60.8267 77.4056 56.7733 79.3256 53.36C81.2456 49.8933 83.9123 47.2267 87.3256 45.36C90.7923 43.4933 94.7656 42.56 99.2456 42.56C103.672 42.56 107.592 43.4667 111.006 45.28C114.419 47.0933 117.086 49.7067 119.006 53.12C120.926 56.48 121.886 60.4533 121.886 65.04ZM105.886 61.12C105.886 59.2 105.246 57.7067 103.966 56.64C102.686 55.52 101.086 54.96 99.1656 54.96C97.2456 54.96 95.6723 55.4933 94.4456 56.56C93.219 57.5733 92.419 59.0933 92.0456 61.12H105.886ZM170.942 65.04C170.942 66.2667 170.862 67.4933 170.703 68.72H141.022C141.182 71.1733 141.849 73.0133 143.022 74.24C144.249 75.4133 145.796 76 147.662 76C150.276 76 152.142 74.8267 153.262 72.48H169.983C169.289 75.5733 167.929 78.3467 165.903 80.8C163.929 83.2 161.422 85.0933 158.382 86.48C155.342 87.8667 151.982 88.56 148.302 88.56C143.876 88.56 139.929 87.6267 136.462 85.76C133.049 83.8933 130.356 81.2267 128.382 77.76C126.462 74.2933 125.502 70.2133 125.502 65.52C125.502 60.8267 126.462 56.7733 128.382 53.36C130.302 49.8933 132.969 47.2267 136.382 45.36C139.849 43.4933 143.822 42.56 148.302 42.56C152.729 42.56 156.649 43.4667 160.062 45.28C163.476 47.0933 166.143 49.7067 168.063 53.12C169.982 56.48 170.942 60.4533 170.942 65.04ZM154.942 61.12C154.942 59.2 154.302 57.7067 153.022 56.64C151.742 55.52 150.142 54.96 148.222 54.96C146.302 54.96 144.729 55.4933 143.502 56.56C142.276 57.5733 141.476 59.0933 141.102 61.12H154.942ZM203.599 74.64V88H196.799C185.333 88 179.599 82.32 179.599 70.96V56.16H174.079V43.12H179.599V32.24H195.359V43.12H203.519V56.16H195.359V71.2C195.359 72.4267 195.626 73.3067 196.159 73.84C196.746 74.3733 197.706 74.64 199.039 74.64H203.599ZM291.464 31.6V88H275.784V56.88L265.144 88H252.024L241.304 56.64V88H225.624V31.6H244.584L258.744 68.24L272.584 31.6H291.464ZM343.029 65.04C343.029 66.2667 342.949 67.4933 342.789 68.72H313.109C313.269 71.1733 313.936 73.0133 315.109 74.24C316.336 75.4133 317.883 76 319.749 76C322.363 76 324.229 74.8267 325.349 72.48H342.069C341.376 75.5733 340.016 78.3467 337.989 80.8C336.016 83.2 333.509 85.0933 330.469 86.48C327.429 87.8667 324.069 88.56 320.389 88.56C315.963 88.56 312.016 87.6267 308.549 85.76C305.136 83.8933 302.443 81.2267 300.469 77.76C298.549 74.2933 297.589 70.2133 297.589 65.52C297.589 60.8267 298.549 56.7733 300.469 53.36C302.389 49.8933 305.056 47.2267 308.469 45.36C311.936 43.4933 315.909 42.56 320.389 42.56C324.816 42.56 328.736 43.4667 332.149 45.28C335.563 47.0933 338.229 49.7067 340.149 53.12C342.069 56.48 343.029 60.4533 343.029 65.04ZM327.029 61.12C327.029 59.2 326.389 57.7067 325.109 56.64C323.829 55.52 322.229 54.96 320.309 54.96C318.389 54.96 316.816 55.4933 315.589 56.56C314.363 57.5733 313.563 59.0933 313.189 61.12H327.029Z" fill="black" fill-opacity="0.8"/>
<path d="M16.192 108.352C15.8293 107.754 15.328 107.296 14.688 106.976C14.0693 106.656 13.3333 106.496 12.48 106.496C10.9013 106.496 9.65333 107.008 8.736 108.032C7.84 109.056 7.392 110.432 7.392 112.16C7.392 114.101 7.872 115.584 8.832 116.608C9.81333 117.61 11.232 118.112 13.088 118.112C15.2853 118.112 16.8533 117.12 17.792 115.136H11.488V110.624H23.2V116.704C22.7093 117.898 21.984 119.018 21.024 120.064C20.0853 121.109 18.8907 121.973 17.44 122.656C15.9893 123.317 14.336 123.648 12.48 123.648C10.2187 123.648 8.21333 123.168 6.464 122.208C4.736 121.226 3.392 119.872 2.432 118.144C1.49333 116.394 1.024 114.4 1.024 112.16C1.024 109.941 1.49333 107.968 2.432 106.24C3.392 104.49 4.736 103.136 6.464 102.176C8.192 101.194 10.1867 100.704 12.448 100.704C15.2853 100.704 17.632 101.386 19.488 102.752C21.344 104.117 22.496 105.984 22.944 108.352H16.192ZM42.9228 114.304C42.9228 114.794 42.8908 115.285 42.8268 115.776H30.9548C31.0188 116.757 31.2854 117.493 31.7548 117.984C32.2454 118.453 32.8641 118.688 33.6108 118.688C34.6561 118.688 35.4028 118.218 35.8508 117.28H42.5388C42.2614 118.517 41.7174 119.626 40.9068 120.608C40.1174 121.568 39.1148 122.325 37.8988 122.88C36.6828 123.434 35.3388 123.712 33.8668 123.712C32.0961 123.712 30.5174 123.338 29.1308 122.592C27.7654 121.845 26.6881 120.778 25.8988 119.392C25.1308 118.005 24.7468 116.373 24.7468 114.496C24.7468 112.618 25.1308 110.997 25.8988 109.632C26.6668 108.245 27.7334 107.178 29.0988 106.432C30.4854 105.685 32.0748 105.312 33.8668 105.312C35.6374 105.312 37.2054 105.674 38.5708 106.4C39.9361 107.125 41.0028 108.17 41.7708 109.536C42.5388 110.88 42.9228 112.469 42.9228 114.304ZM36.5228 112.736C36.5228 111.968 36.2668 111.37 35.7548 110.944C35.2428 110.496 34.6028 110.272 33.8348 110.272C33.0668 110.272 32.4374 110.485 31.9468 110.912C31.4561 111.317 31.1361 111.925 30.9868 112.736H36.5228ZM55.8415 118.144V123.488H53.1215C48.5348 123.488 46.2415 121.216 46.2415 116.672V110.752H44.0335V105.536H46.2415V101.184H52.5455V105.536H55.8095V110.752H52.5455V116.768C52.5455 117.258 52.6522 117.61 52.8655 117.824C53.1002 118.037 53.4842 118.144 54.0175 118.144H55.8415ZM63.3393 114.496C63.3393 112.64 63.6699 111.018 64.3313 109.632C65.0139 108.245 65.9313 107.178 67.0833 106.432C68.2566 105.685 69.5579 105.312 70.9873 105.312C72.2246 105.312 73.2913 105.557 74.1873 106.048C75.0833 106.538 75.7766 107.2 76.2673 108.032V105.536H82.5393V123.488H76.2673V120.992C75.7766 121.824 75.0726 122.485 74.1553 122.976C73.2593 123.466 72.2033 123.712 70.9873 123.712C69.5579 123.712 68.2566 123.338 67.0833 122.592C65.9313 121.845 65.0139 120.778 64.3313 119.392C63.6699 117.984 63.3393 116.352 63.3393 114.496ZM76.2673 114.496C76.2673 113.344 75.9473 112.437 75.3073 111.776C74.6886 111.114 73.9206 110.784 73.0033 110.784C72.0646 110.784 71.2859 111.114 70.6673 111.776C70.0486 112.416 69.7393 113.322 69.7393 114.496C69.7393 115.648 70.0486 116.565 70.6673 117.248C71.2859 117.909 72.0646 118.24 73.0033 118.24C73.9206 118.24 74.6886 117.909 75.3073 117.248C75.9473 116.586 76.2673 115.669 76.2673 114.496ZM97.6173 105.376C99.6866 105.376 101.329 106.069 102.545 107.456C103.761 108.821 104.369 110.677 104.369 113.024V123.488H98.0973V113.856C98.0973 112.832 97.8306 112.032 97.2973 111.456C96.7639 110.858 96.0493 110.56 95.1533 110.56C94.2146 110.56 93.4786 110.858 92.9453 111.456C92.4119 112.032 92.1453 112.832 92.1453 113.856V123.488H85.8733V105.536H92.1453V108.096C92.6999 107.285 93.4466 106.634 94.3853 106.144C95.3239 105.632 96.4013 105.376 97.6173 105.376ZM127.728 119.808H119.728L118.512 123.488H111.92L120.144 100.928H127.376L135.568 123.488H128.944L127.728 119.808ZM126.16 115.008L123.728 107.712L121.328 115.008H126.16ZM143.644 108.032C144.135 107.2 144.828 106.538 145.724 106.048C146.62 105.557 147.676 105.312 148.892 105.312C150.321 105.312 151.612 105.685 152.764 106.432C153.937 107.178 154.855 108.245 155.516 109.632C156.199 111.018 156.54 112.64 156.54 114.496C156.54 116.352 156.199 117.984 155.516 119.392C154.855 120.778 153.937 121.845 152.764 122.592C151.612 123.338 150.321 123.712 148.892 123.712C147.676 123.712 146.62 123.466 145.724 122.976C144.849 122.485 144.156 121.824 143.644 120.992V132.064H137.372V105.536H143.644V108.032ZM150.172 114.496C150.172 113.322 149.852 112.416 149.212 111.776C148.593 111.114 147.825 110.784 146.908 110.784C145.991 110.784 145.212 111.114 144.572 111.776C143.953 112.437 143.644 113.344 143.644 114.496C143.644 115.669 143.953 116.586 144.572 117.248C145.212 117.909 145.991 118.24 146.908 118.24C147.825 118.24 148.593 117.909 149.212 117.248C149.852 116.565 150.172 115.648 150.172 114.496ZM165.154 108.032C165.645 107.2 166.338 106.538 167.234 106.048C168.13 105.557 169.186 105.312 170.402 105.312C171.831 105.312 173.122 105.685 174.274 106.432C175.447 107.178 176.365 108.245 177.026 109.632C177.709 111.018 178.05 112.64 178.05 114.496C178.05 116.352 177.709 117.984 177.026 119.392C176.365 120.778 175.447 121.845 174.274 122.592C173.122 123.338 171.831 123.712 170.402 123.712C169.186 123.712 168.13 123.466 167.234 122.976C166.359 122.485 165.666 121.824 165.154 120.992V132.064H158.882V105.536H165.154V108.032ZM171.682 114.496C171.682 113.322 171.362 112.416 170.722 111.776C170.103 111.114 169.335 110.784 168.418 110.784C167.501 110.784 166.722 111.114 166.082 111.776C165.463 112.437 165.154 113.344 165.154 114.496C165.154 115.669 165.463 116.586 166.082 117.248C166.722 117.909 167.501 118.24 168.418 118.24C169.335 118.24 170.103 117.909 170.722 117.248C171.362 116.565 171.682 115.648 171.682 114.496ZM188.744 123.712C186.952 123.712 185.341 123.338 183.912 122.592C182.504 121.845 181.395 120.778 180.584 119.392C179.773 118.005 179.368 116.373 179.368 114.496C179.368 112.64 179.773 111.018 180.584 109.632C181.416 108.245 182.536 107.178 183.944 106.432C185.373 105.685 186.984 105.312 188.776 105.312C190.568 105.312 192.168 105.685 193.576 106.432C195.005 107.178 196.125 108.245 196.936 109.632C197.768 111.018 198.184 112.64 198.184 114.496C198.184 116.352 197.768 117.984 196.936 119.392C196.125 120.778 195.005 121.845 193.576 122.592C192.147 123.338 190.536 123.712 188.744 123.712ZM188.744 118.272C189.619 118.272 190.344 117.952 190.92 117.312C191.517 116.65 191.816 115.712 191.816 114.496C191.816 113.28 191.517 112.352 190.92 111.712C190.344 111.072 189.629 110.752 188.776 110.752C187.923 110.752 187.208 111.072 186.632 111.712C186.056 112.352 185.768 113.28 185.768 114.496C185.768 115.733 186.045 116.672 186.6 117.312C187.155 117.952 187.869 118.272 188.744 118.272ZM203.664 103.872C202.554 103.872 201.658 103.573 200.976 102.976C200.314 102.357 199.984 101.589 199.984 100.672C199.984 99.7329 200.314 98.9542 200.976 98.3355C201.658 97.7169 202.554 97.4075 203.664 97.4075C204.752 97.4075 205.626 97.7169 206.288 98.3355C206.97 98.9542 207.312 99.7329 207.312 100.672C207.312 101.589 206.97 102.357 206.288 102.976C205.626 103.573 204.752 103.872 203.664 103.872ZM206.768 105.536V123.488H200.496V105.536H206.768ZM221.843 105.376C223.913 105.376 225.555 106.069 226.771 107.456C227.987 108.821 228.595 110.677 228.595 113.024V123.488H222.323V113.856C222.323 112.832 222.057 112.032 221.523 111.456C220.99 110.858 220.275 110.56 219.379 110.56C218.441 110.56 217.705 110.858 217.171 111.456C216.638 112.032 216.371 112.832 216.371 113.856V123.488H210.099V105.536H216.371V108.096C216.926 107.285 217.673 106.634 218.611 106.144C219.55 105.632 220.627 105.376 221.843 105.376ZM242.389 118.144V123.488H239.669C235.082 123.488 232.789 121.216 232.789 116.672V110.752H230.581V105.536H232.789V101.184H239.093V105.536H242.357V110.752H239.093V116.768C239.093 117.258 239.2 117.61 239.413 117.824C239.648 118.037 240.032 118.144 240.565 118.144H242.389ZM268.482 105.376C270.743 105.376 272.514 106.058 273.794 107.424C275.095 108.789 275.746 110.656 275.746 113.024V123.488H269.474V113.856C269.474 112.896 269.207 112.149 268.674 111.616C268.14 111.082 267.415 110.816 266.498 110.816C265.58 110.816 264.855 111.082 264.322 111.616C263.788 112.149 263.522 112.896 263.522 113.856V123.488H257.25V113.856C257.25 112.896 256.983 112.149 256.45 111.616C255.938 111.082 255.223 110.816 254.306 110.816C253.367 110.816 252.631 111.082 252.098 111.616C251.564 112.149 251.298 112.896 251.298 113.856V123.488H245.026V105.536H251.298V107.904C251.852 107.136 252.567 106.528 253.442 106.08C254.338 105.61 255.362 105.376 256.514 105.376C257.836 105.376 259.01 105.664 260.034 106.24C261.079 106.816 261.9 107.626 262.498 108.672C263.138 107.69 263.98 106.901 265.026 106.304C266.071 105.685 267.223 105.376 268.482 105.376ZM296.094 114.304C296.094 114.794 296.062 115.285 295.998 115.776H284.126C284.19 116.757 284.457 117.493 284.926 117.984C285.417 118.453 286.035 118.688 286.782 118.688C287.827 118.688 288.574 118.218 289.022 117.28H295.71C295.433 118.517 294.889 119.626 294.078 120.608C293.289 121.568 292.286 122.325 291.07 122.88C289.854 123.434 288.51 123.712 287.038 123.712C285.267 123.712 283.689 123.338 282.302 122.592C280.937 121.845 279.859 120.778 279.07 119.392C278.302 118.005 277.918 116.373 277.918 114.496C277.918 112.618 278.302 110.997 279.07 109.632C279.838 108.245 280.905 107.178 282.27 106.432C283.657 105.685 285.246 105.312 287.038 105.312C288.809 105.312 290.377 105.674 291.742 106.4C293.107 107.125 294.174 108.17 294.942 109.536C295.71 110.88 296.094 112.469 296.094 114.304ZM289.694 112.736C289.694 111.968 289.438 111.37 288.926 110.944C288.414 110.496 287.774 110.272 287.006 110.272C286.238 110.272 285.609 110.485 285.118 110.912C284.627 111.317 284.307 111.925 284.158 112.736H289.694ZM310.165 105.376C312.234 105.376 313.877 106.069 315.093 107.456C316.309 108.821 316.917 110.677 316.917 113.024V123.488H310.645V113.856C310.645 112.832 310.378 112.032 309.845 111.456C309.311 110.858 308.597 110.56 307.701 110.56C306.762 110.56 306.026 110.858 305.493 111.456C304.959 112.032 304.693 112.832 304.693 113.856V123.488H298.421V105.536H304.693V108.096C305.247 107.285 305.994 106.634 306.933 106.144C307.871 105.632 308.949 105.376 310.165 105.376ZM330.71 118.144V123.488H327.99C323.404 123.488 321.11 121.216 321.11 116.672V110.752H318.902V105.536H321.11V101.184H327.414V105.536H330.678V110.752H327.414V116.768C327.414 117.258 327.521 117.61 327.734 117.824C327.969 118.037 328.353 118.144 328.886 118.144H330.71Z" fill="black"/>
</svg>
