<svg width="521" height="119" viewBox="0 0 521 119" fill="none" xmlns="http://www.w3.org/2000/svg">
<path d="M40.16 58.8H20.16L17.12 68H0.64L21.2 11.6H39.28L59.76 68H43.2L40.16 58.8ZM36.24 46.8L30.16 28.56L24.16 46.8H36.24ZM80.3106 29.36C81.5373 27.2267 83.2706 25.5733 85.5106 24.4C87.7506 23.1733 90.3906 22.56 93.4306 22.56C97.004 22.56 100.231 23.4933 103.111 25.36C106.044 27.2267 108.337 29.8933 109.991 33.36C111.697 36.8267 112.551 40.88 112.551 45.52C112.551 50.16 111.697 54.24 109.991 57.76C108.337 61.2267 106.044 63.8933 103.111 65.76C100.231 67.6267 97.004 68.56 93.4306 68.56C90.3906 68.56 87.7506 67.9733 85.5106 66.8C83.2706 65.5733 81.5373 63.8933 80.3106 61.76V68H64.6306V8.8H80.3106V29.36ZM96.6306 45.52C96.6306 42.5867 95.8306 40.32 94.2306 38.72C92.684 37.0667 90.764 36.24 88.4706 36.24C86.1773 36.24 84.2306 37.0667 82.6306 38.72C81.084 40.3733 80.3106 42.64 80.3106 45.52C80.3106 48.4533 81.084 50.7467 82.6306 52.4C84.2306 54.0533 86.1773 54.88 88.4706 54.88C90.764 54.88 92.684 54.0533 94.2306 52.4C95.8306 50.6933 96.6306 48.4 96.6306 45.52ZM139.646 68.56C135.166 68.56 131.139 67.6267 127.566 65.76C124.046 63.8933 121.272 61.2267 119.246 57.76C117.219 54.2933 116.206 50.2133 116.206 45.52C116.206 40.88 117.219 36.8267 119.246 33.36C121.326 29.8933 124.126 27.2267 127.646 25.36C131.219 23.4933 135.246 22.56 139.726 22.56C144.206 22.56 148.206 23.4933 151.726 25.36C155.299 27.2267 158.099 29.8933 160.126 33.36C162.206 36.8267 163.246 40.88 163.246 45.52C163.246 50.16 162.206 54.24 160.126 57.76C158.099 61.2267 155.299 63.8933 151.726 65.76C148.152 67.6267 144.126 68.56 139.646 68.56ZM139.646 54.96C141.832 54.96 143.646 54.16 145.086 52.56C146.579 50.9067 147.326 48.56 147.326 45.52C147.326 42.48 146.579 40.16 145.086 38.56C143.646 36.96 141.859 36.16 139.726 36.16C137.592 36.16 135.806 36.96 134.366 38.56C132.926 40.16 132.206 42.48 132.206 45.52C132.206 48.6133 132.899 50.96 134.286 52.56C135.672 54.16 137.459 54.96 139.646 54.96ZM215.305 23.12V68H199.545V61.6C198.212 63.6267 196.372 65.28 194.025 66.56C191.678 67.7867 188.985 68.4 185.945 68.4C180.718 68.4 176.585 66.6933 173.545 63.28C170.558 59.8133 169.065 55.12 169.065 49.2V23.12H184.665V47.2C184.665 49.76 185.332 51.7867 186.665 53.28C188.052 54.72 189.865 55.44 192.105 55.44C194.398 55.44 196.212 54.72 197.545 53.28C198.878 51.7867 199.545 49.76 199.545 47.2V23.12H215.305ZM250.469 54.64V68H243.669C232.202 68 226.469 62.32 226.469 50.96V36.16H220.949V23.12H226.469V12.24H242.229V23.12H250.389V36.16H242.229V51.2C242.229 52.4267 242.495 53.3067 243.029 53.84C243.615 54.3733 244.575 54.64 245.909 54.64H250.469ZM338.333 11.6V68H322.653V36.88L312.013 68H298.893L288.173 36.64V68H272.493V11.6H291.453L305.613 48.24L319.453 11.6H338.333ZM389.899 45.04C389.899 46.2667 389.819 47.4933 389.659 48.72H359.979C360.139 51.1733 360.805 53.0133 361.979 54.24C363.205 55.4133 364.752 56 366.619 56C369.232 56 371.099 54.8267 372.219 52.48H388.939C388.245 55.5733 386.885 58.3467 384.859 60.8C382.885 63.2 380.379 65.0933 377.339 66.48C374.299 67.8667 370.939 68.56 367.259 68.56C362.832 68.56 358.885 67.6267 355.419 65.76C352.005 63.8933 349.312 61.2267 347.339 57.76C345.419 54.2933 344.459 50.2133 344.459 45.52C344.459 40.8267 345.419 36.7733 347.339 33.36C349.259 29.8933 351.925 27.2267 355.339 25.36C358.805 23.4933 362.779 22.56 367.259 22.56C371.685 22.56 375.605 23.4667 379.019 25.28C382.432 27.0933 385.099 29.7067 387.019 33.12C388.939 36.48 389.899 40.4533 389.899 45.04ZM373.899 41.12C373.899 39.2 373.259 37.7067 371.979 36.64C370.699 35.52 369.099 34.96 367.179 34.96C365.259 34.96 363.685 35.4933 362.459 36.56C361.232 37.5733 360.432 39.0933 360.059 41.12H373.899Z" fill="white" fill-opacity="0.3"/>
<path d="M113.468 72.304V106H105.26V85.792L97.7242 106H91.1002L83.5162 85.744V106H75.3082V72.304H85.0042L94.4602 95.632L103.82 72.304H113.468ZM146.491 79.216L129.691 118.72H120.859L127.003 105.088L116.107 79.216H125.275L131.467 95.968L137.611 79.216H146.491ZM171.343 106.336C168.879 106.336 166.671 105.936 164.719 105.136C162.767 104.336 161.199 103.152 160.015 101.584C158.863 100.016 158.255 98.128 158.191 95.92H166.927C167.055 97.168 167.487 98.128 168.223 98.8C168.959 99.44 169.919 99.76 171.103 99.76C172.319 99.76 173.279 99.488 173.983 98.944C174.687 98.368 175.039 97.584 175.039 96.592C175.039 95.76 174.751 95.072 174.175 94.528C173.631 93.984 172.943 93.536 172.111 93.184C171.311 92.832 170.159 92.432 168.655 91.984C166.479 91.312 164.703 90.64 163.327 89.968C161.951 89.296 160.767 88.304 159.775 86.992C158.783 85.68 158.287 83.968 158.287 81.856C158.287 78.72 159.423 76.272 161.695 74.512C163.967 72.72 166.927 71.824 170.575 71.824C174.287 71.824 177.279 72.72 179.551 74.512C181.823 76.272 183.039 78.736 183.199 81.904H174.319C174.255 80.816 173.855 79.968 173.119 79.36C172.383 78.72 171.439 78.4 170.287 78.4C169.295 78.4 168.495 78.672 167.887 79.216C167.279 79.728 166.975 80.48 166.975 81.472C166.975 82.56 167.487 83.408 168.511 84.016C169.535 84.624 171.135 85.28 173.311 85.984C175.487 86.72 177.247 87.424 178.591 88.096C179.967 88.768 181.151 89.744 182.143 91.024C183.135 92.304 183.631 93.952 183.631 95.968C183.631 97.888 183.135 99.632 182.143 101.2C181.183 102.768 179.775 104.016 177.919 104.944C176.063 105.872 173.871 106.336 171.343 106.336ZM203.37 99.04V106H199.194C196.218 106 193.898 105.28 192.234 103.84C190.57 102.368 189.738 99.984 189.738 96.688V86.032H186.474V79.216H189.738V72.688H197.946V79.216H203.322V86.032H197.946V96.784C197.946 97.584 198.138 98.16 198.522 98.512C198.906 98.864 199.546 99.04 200.442 99.04H203.37ZM219.894 106.384C217.27 106.384 214.902 105.824 212.79 104.704C210.71 103.584 209.062 101.984 207.846 99.904C206.662 97.824 206.07 95.392 206.07 92.608C206.07 89.856 206.678 87.44 207.894 85.36C209.11 83.248 210.774 81.632 212.886 80.512C214.998 79.392 217.366 78.832 219.99 78.832C222.614 78.832 224.982 79.392 227.094 80.512C229.206 81.632 230.87 83.248 232.086 85.36C233.302 87.44 233.91 89.856 233.91 92.608C233.91 95.36 233.286 97.792 232.038 99.904C230.822 101.984 229.142 103.584 226.998 104.704C224.886 105.824 222.518 106.384 219.894 106.384ZM219.894 99.28C221.462 99.28 222.79 98.704 223.878 97.552C224.998 96.4 225.558 94.752 225.558 92.608C225.558 90.464 225.014 88.816 223.926 87.664C222.87 86.512 221.558 85.936 219.99 85.936C218.39 85.936 217.062 86.512 216.006 87.664C214.95 88.784 214.422 90.432 214.422 92.608C214.422 94.752 214.934 96.4 215.958 97.552C217.014 98.704 218.326 99.28 219.894 99.28ZM246.232 83.68C247.192 82.208 248.392 81.056 249.832 80.224C251.272 79.36 252.872 78.928 254.632 78.928V87.616H252.376C250.328 87.616 248.792 88.064 247.768 88.96C246.744 89.824 246.232 91.36 246.232 93.568V106H238.024V79.216H246.232V83.68ZM285.676 79.216L268.876 118.72H260.044L266.188 105.088L255.292 79.216H264.46L270.652 95.968L276.796 79.216H285.676Z" fill="white"/>
</svg>
