<svg width="402" height="88" viewBox="0 0 402 88" fill="none" xmlns="http://www.w3.org/2000/svg">
<line x1="8" y1="9.25" x2="40" y2="9.25" stroke="white" stroke-width="1.5"/>
<path d="M48.1321 16.128C47.0121 16.128 45.9987 15.8827 45.0921 15.392C44.1961 14.8907 43.4921 14.208 42.9801 13.344C42.4681 12.4693 42.2121 11.488 42.2121 10.4C42.2121 9.312 42.4681 8.336 42.9801 7.472C43.4921 6.59733 44.2014 5.91467 45.1081 5.424C46.0147 4.92267 47.0281 4.672 48.1481 4.672C49.0227 4.672 49.8227 4.82133 50.5481 5.12C51.2734 5.408 51.8921 5.84 52.4041 6.416L51.3641 7.424C50.5214 6.53867 49.4707 6.096 48.2121 6.096C47.3801 6.096 46.6281 6.28267 45.9561 6.656C45.2841 7.02933 44.7561 7.54667 44.3721 8.208C43.9987 8.85867 43.8121 9.58933 43.8121 10.4C43.8121 11.2107 43.9987 11.9467 44.3721 12.608C44.7561 13.2587 45.2841 13.7707 45.9561 14.144C46.6281 14.5173 47.3801 14.704 48.2121 14.704C49.4601 14.704 50.5107 14.256 51.3641 13.36L52.4041 14.368C51.8921 14.944 51.2681 15.3813 50.5321 15.68C49.8067 15.9787 49.0067 16.128 48.1321 16.128ZM64.0786 4.8V16H62.4786V11.008H56.0466V16H54.4466V4.8H56.0466V9.616H62.4786V4.8H64.0786ZM74.3269 13.2H68.3749L67.1429 16H65.4949L70.5669 4.8H72.1509L77.2389 16H75.5589L74.3269 13.2ZM73.7669 11.92L71.3509 6.432L68.9349 11.92H73.7669ZM86.1577 16L83.7417 12.56C83.443 12.5813 83.2084 12.592 83.0377 12.592H80.2697V16H78.6697V4.8H83.0377C84.4884 4.8 85.6297 5.14667 86.4617 5.84C87.2937 6.53333 87.7097 7.488 87.7097 8.704C87.7097 9.568 87.4964 10.304 87.0697 10.912C86.643 11.52 86.035 11.9627 85.2457 12.24L87.9017 16H86.1577ZM82.9897 11.232C84.003 11.232 84.7764 11.0133 85.3097 10.576C85.843 10.1387 86.1097 9.51467 86.1097 8.704C86.1097 7.89333 85.843 7.27467 85.3097 6.848C84.7764 6.41067 84.003 6.192 82.9897 6.192H80.2697V11.232H82.9897ZM90.0547 4.8H91.6547V14.608H97.7187V16H90.0547V4.8ZM107.443 14.608V16H99.3147V4.8H107.219V6.192H100.915V9.632H106.531V10.992H100.915V14.608H107.443ZM113.057 16.128C112.215 16.128 111.399 16 110.609 15.744C109.831 15.4773 109.217 15.136 108.769 14.72L109.361 13.472C109.788 13.856 110.332 14.1707 110.993 14.416C111.665 14.6507 112.353 14.768 113.057 14.768C113.985 14.768 114.679 14.6133 115.137 14.304C115.596 13.984 115.825 13.5627 115.825 13.04C115.825 12.656 115.697 12.3467 115.441 12.112C115.196 11.8667 114.887 11.68 114.513 11.552C114.151 11.424 113.633 11.28 112.961 11.12C112.119 10.9173 111.436 10.7147 110.913 10.512C110.401 10.3093 109.959 10 109.585 9.584C109.223 9.15733 109.041 8.58667 109.041 7.872C109.041 7.27467 109.196 6.736 109.505 6.256C109.825 5.776 110.305 5.392 110.945 5.104C111.585 4.816 112.38 4.672 113.329 4.672C113.991 4.672 114.641 4.75733 115.281 4.928C115.921 5.09867 116.471 5.344 116.929 5.664L116.401 6.944C115.932 6.64533 115.431 6.42133 114.897 6.272C114.364 6.112 113.841 6.032 113.329 6.032C112.423 6.032 111.74 6.19733 111.281 6.528C110.833 6.85867 110.609 7.28533 110.609 7.808C110.609 8.192 110.737 8.50667 110.993 8.752C111.249 8.98667 111.564 9.17333 111.937 9.312C112.321 9.44 112.839 9.57867 113.489 9.728C114.332 9.93067 115.009 10.1333 115.521 10.336C116.033 10.5387 116.471 10.848 116.833 11.264C117.207 11.68 117.393 12.24 117.393 12.944C117.393 13.5307 117.233 14.0693 116.913 14.56C116.593 15.04 116.108 15.424 115.457 15.712C114.807 15.9893 114.007 16.128 113.057 16.128ZM118.989 10.944H123.293V12.272H118.989V10.944ZM130.759 16.128C129.639 16.128 128.626 15.8827 127.719 15.392C126.823 14.8907 126.119 14.208 125.607 13.344C125.095 12.4693 124.839 11.488 124.839 10.4C124.839 9.312 125.095 8.336 125.607 7.472C126.119 6.59733 126.828 5.91467 127.735 5.424C128.642 4.92267 129.655 4.672 130.775 4.672C131.65 4.672 132.45 4.82133 133.175 5.12C133.9 5.408 134.519 5.84 135.031 6.416L133.991 7.424C133.148 6.53867 132.098 6.096 130.839 6.096C130.007 6.096 129.255 6.28267 128.583 6.656C127.911 7.02933 127.383 7.54667 126.999 8.208C126.626 8.85867 126.439 9.58933 126.439 10.4C126.439 11.2107 126.626 11.9467 126.999 12.608C127.383 13.2587 127.911 13.7707 128.583 14.144C129.255 14.5173 130.007 14.704 130.839 14.704C132.087 14.704 133.138 14.256 133.991 13.36L135.031 14.368C134.519 14.944 133.895 15.3813 133.159 15.68C132.434 15.9787 131.634 16.128 130.759 16.128ZM137.073 4.8H138.673V14.608H144.737V16H137.073V4.8ZM154.461 14.608V16H146.333V4.8H154.237V6.192H147.933V9.632H153.549V10.992H147.933V14.608H154.461ZM167.196 16L167.18 7.84L163.132 14.64H162.396L158.348 7.888V16H156.812V4.8H158.124L162.796 12.672L167.404 4.8H168.716L168.732 16H167.196ZM179.981 14.608V16H171.853V4.8H179.757V6.192H173.453V9.632H179.069V10.992H173.453V14.608H179.981ZM191.964 4.8V16H190.652L183.932 7.648V16H182.332V4.8H183.644L190.364 13.152V4.8H191.964ZM197.301 6.192H193.461V4.8H202.725V6.192H198.885V16H197.301V6.192ZM215.42 13.2H209.468L208.236 16H206.588L211.66 4.8H213.244L218.332 16H216.652L215.42 13.2ZM214.86 11.92L212.444 6.432L210.028 11.92H214.86ZM228.897 4.8L223.985 16H222.401L217.473 4.8H219.201L223.233 14L227.297 4.8H228.897ZM234.96 16.128C233.466 16.128 232.304 15.7013 231.472 14.848C230.64 13.9947 230.224 12.768 230.224 11.168V4.8H231.824V11.104C231.824 13.504 232.874 14.704 234.976 14.704C236 14.704 236.784 14.4107 237.328 13.824C237.872 13.2267 238.144 12.32 238.144 11.104V4.8H239.696V11.168C239.696 12.7787 239.28 14.0107 238.448 14.864C237.616 15.7067 236.453 16.128 234.96 16.128ZM242.736 4.8H244.336V14.608H250.4V16H242.736V4.8Z" fill="white"/>
<path opacity="0.48" d="M8.512 42.542V50.636H21.356V54.816H8.512V65H3.572V38.4H22.99V42.542H8.512ZM46.1607 44.708V65H41.6387V62.416C40.8787 63.328 39.9287 64.0373 38.7887 64.544C37.6487 65.0253 36.42 65.266 35.1027 65.266C32.392 65.266 30.2513 64.5187 28.6807 63.024C27.1353 61.504 26.3627 59.262 26.3627 56.298V44.708H31.1127V55.652C31.1127 57.476 31.518 58.844 32.3287 59.756C33.1647 60.6427 34.3427 61.086 35.8627 61.086C37.56 61.086 38.9027 60.5667 39.8907 59.528C40.904 58.464 41.4107 56.944 41.4107 54.968V44.708H46.1607ZM52.1399 36.804H56.8899V65H52.1399V36.804ZM62.8843 36.804H67.6343V65H62.8843V36.804ZM79.8987 65.266C78.252 65.266 76.6433 65.0507 75.0727 64.62C73.502 64.1893 72.248 63.6447 71.3107 62.986L73.1347 59.376C74.0467 59.984 75.136 60.478 76.4027 60.858C77.6947 61.2127 78.9613 61.39 80.2027 61.39C83.04 61.39 84.4587 60.6427 84.4587 59.148C84.4587 58.4387 84.0913 57.9447 83.3567 57.666C82.6473 57.3873 81.4947 57.1213 79.8987 56.868C78.2267 56.6147 76.8587 56.3233 75.7947 55.994C74.756 55.6647 73.844 55.0947 73.0587 54.284C72.2987 53.448 71.9187 52.2953 71.9187 50.826C71.9187 48.9007 72.7167 47.368 74.3127 46.228C75.934 45.0627 78.1127 44.48 80.8487 44.48C82.242 44.48 83.6353 44.6447 85.0287 44.974C86.422 45.278 87.562 45.696 88.4487 46.228L86.6247 49.838C84.902 48.8247 82.964 48.318 80.8107 48.318C79.4173 48.318 78.3533 48.5333 77.6187 48.964C76.9093 49.3693 76.5547 49.914 76.5547 50.598C76.5547 51.358 76.9347 51.9027 77.6947 52.232C78.48 52.536 79.6833 52.8273 81.3047 53.106C82.926 53.3593 84.256 53.6507 85.2947 53.98C86.3333 54.3093 87.22 54.8667 87.9547 55.652C88.7147 56.4373 89.0947 57.552 89.0947 58.996C89.0947 60.896 88.2713 62.416 86.6247 63.556C84.978 64.696 82.736 65.266 79.8987 65.266ZM105.143 63.898C104.586 64.354 103.902 64.696 103.091 64.924C102.306 65.152 101.47 65.266 100.583 65.266C98.354 65.266 96.6313 64.6833 95.4153 63.518C94.1993 62.3527 93.5913 60.6553 93.5913 58.426V48.66H90.2473V44.86H93.5913V40.224H98.3413V44.86H103.775V48.66H98.3413V58.312C98.3413 59.3 98.582 60.06 99.0633 60.592C99.5446 61.0987 100.241 61.352 101.153 61.352C102.217 61.352 103.104 61.0733 103.813 60.516L105.143 63.898ZM116.563 44.48C119.552 44.48 121.832 45.202 123.403 46.646C124.999 48.0647 125.797 50.218 125.797 53.106V65H121.313V62.53C120.73 63.4167 119.894 64.1007 118.805 64.582C117.741 65.038 116.449 65.266 114.929 65.266C113.409 65.266 112.079 65.0127 110.939 64.506C109.799 63.974 108.912 63.252 108.279 62.34C107.671 61.4027 107.367 60.3513 107.367 59.186C107.367 57.362 108.038 55.9053 109.381 54.816C110.749 53.7013 112.889 53.144 115.803 53.144H121.047V52.84C121.047 51.4213 120.616 50.332 119.755 49.572C118.919 48.812 117.665 48.432 115.993 48.432C114.853 48.432 113.725 48.6093 112.611 48.964C111.521 49.3187 110.597 49.8127 109.837 50.446L107.975 46.988C109.039 46.1773 110.318 45.5567 111.813 45.126C113.307 44.6953 114.891 44.48 116.563 44.48ZM115.917 61.808C117.107 61.808 118.159 61.542 119.071 61.01C120.008 60.4527 120.667 59.6673 121.047 58.654V56.298H116.145C113.409 56.298 112.041 57.1973 112.041 58.996C112.041 59.8573 112.383 60.5413 113.067 61.048C113.751 61.5547 114.701 61.808 115.917 61.808ZM141.148 65.266C139.046 65.266 137.158 64.8227 135.486 63.936C133.814 63.0493 132.51 61.8207 131.572 60.25C130.635 58.654 130.166 56.8553 130.166 54.854C130.166 52.8527 130.635 51.0667 131.572 49.496C132.51 47.9253 133.802 46.6967 135.448 45.81C137.12 44.9233 139.02 44.48 141.148 44.48C143.15 44.48 144.898 44.8853 146.392 45.696C147.912 46.5067 149.052 47.672 149.812 49.192L146.164 51.32C145.582 50.3827 144.847 49.686 143.96 49.23C143.099 48.7487 142.149 48.508 141.11 48.508C139.337 48.508 137.868 49.0907 136.702 50.256C135.537 51.396 134.954 52.9287 134.954 54.854C134.954 56.7793 135.524 58.3247 136.664 59.49C137.83 60.63 139.312 61.2 141.11 61.2C142.149 61.2 143.099 60.972 143.96 60.516C144.847 60.0347 145.582 59.3253 146.164 58.388L149.812 60.516C149.027 62.036 147.874 63.214 146.354 64.05C144.86 64.8607 143.124 65.266 141.148 65.266ZM161.777 56.298L158.243 59.642V65H153.493V36.804H158.243V53.828L168.085 44.708H173.785L165.311 53.22L174.583 65H168.807L161.777 56.298ZM188.129 38.4H199.757C202.594 38.4 205.115 38.9573 207.319 40.072C209.523 41.1613 211.233 42.7193 212.449 44.746C213.665 46.7473 214.273 49.0653 214.273 51.7C214.273 54.3347 213.665 56.6653 212.449 58.692C211.233 60.6933 209.523 62.2513 207.319 63.366C205.115 64.4553 202.594 65 199.757 65H188.129V38.4ZM199.529 60.82C201.48 60.82 203.19 60.4527 204.659 59.718C206.154 58.958 207.294 57.894 208.079 56.526C208.89 55.1327 209.295 53.524 209.295 51.7C209.295 49.876 208.89 48.28 208.079 46.912C207.294 45.5187 206.154 44.4547 204.659 43.72C203.19 42.96 201.48 42.58 199.529 42.58H193.069V60.82H199.529ZM237.904 54.968C237.904 55.2973 237.878 55.766 237.828 56.374H221.906C222.184 57.8687 222.906 59.0593 224.072 59.946C225.262 60.8073 226.732 61.238 228.48 61.238C230.709 61.238 232.546 60.5033 233.99 59.034L236.536 61.96C235.624 63.0493 234.471 63.8727 233.078 64.43C231.684 64.9873 230.114 65.266 228.366 65.266C226.136 65.266 224.173 64.8227 222.476 63.936C220.778 63.0493 219.461 61.8207 218.524 60.25C217.612 58.654 217.156 56.8553 217.156 54.854C217.156 52.878 217.599 51.1047 218.486 49.534C219.398 47.938 220.652 46.6967 222.248 45.81C223.844 44.9233 225.642 44.48 227.644 44.48C229.62 44.48 231.38 44.9233 232.926 45.81C234.496 46.6713 235.712 47.9 236.574 49.496C237.46 51.0667 237.904 52.8907 237.904 54.968ZM227.644 48.28C226.124 48.28 224.832 48.736 223.768 49.648C222.729 50.5347 222.096 51.7253 221.868 53.22H233.382C233.179 51.7507 232.558 50.56 231.52 49.648C230.481 48.736 229.189 48.28 227.644 48.28ZM260.855 44.708L252.153 65H247.251L238.549 44.708H243.489L249.797 59.756L256.295 44.708H260.855ZM282.103 54.968C282.103 55.2973 282.078 55.766 282.027 56.374H266.105C266.384 57.8687 267.106 59.0593 268.271 59.946C269.462 60.8073 270.931 61.238 272.679 61.238C274.909 61.238 276.745 60.5033 278.189 59.034L280.735 61.96C279.823 63.0493 278.671 63.8727 277.277 64.43C275.884 64.9873 274.313 65.266 272.565 65.266C270.336 65.266 268.373 64.8227 266.675 63.936C264.978 63.0493 263.661 61.8207 262.723 60.25C261.811 58.654 261.355 56.8553 261.355 54.854C261.355 52.878 261.799 51.1047 262.685 49.534C263.597 47.938 264.851 46.6967 266.447 45.81C268.043 44.9233 269.842 44.48 271.843 44.48C273.819 44.48 275.58 44.9233 277.125 45.81C278.696 46.6713 279.912 47.9 280.773 49.496C281.66 51.0667 282.103 52.8907 282.103 54.968ZM271.843 48.28C270.323 48.28 269.031 48.736 267.967 49.648C266.929 50.5347 266.295 51.7253 266.067 53.22H277.581C277.379 51.7507 276.758 50.56 275.719 49.648C274.681 48.736 273.389 48.28 271.843 48.28ZM286.426 36.804H291.176V65H286.426V36.804ZM306.29 65.266C304.238 65.266 302.389 64.8227 300.742 63.936C299.096 63.0493 297.804 61.8207 296.866 60.25C295.954 58.654 295.498 56.8553 295.498 54.854C295.498 52.8527 295.954 51.0667 296.866 49.496C297.804 47.9253 299.096 46.6967 300.742 45.81C302.389 44.9233 304.238 44.48 306.29 44.48C308.368 44.48 310.23 44.9233 311.876 45.81C313.523 46.6967 314.802 47.9253 315.714 49.496C316.652 51.0667 317.12 52.8527 317.12 54.854C317.12 56.8553 316.652 58.654 315.714 60.25C314.802 61.8207 313.523 63.0493 311.876 63.936C310.23 64.8227 308.368 65.266 306.29 65.266ZM306.29 61.2C308.038 61.2 309.482 60.6173 310.622 59.452C311.762 58.2867 312.332 56.754 312.332 54.854C312.332 52.954 311.762 51.4213 310.622 50.256C309.482 49.0907 308.038 48.508 306.29 48.508C304.542 48.508 303.098 49.0907 301.958 50.256C300.844 51.4213 300.286 52.954 300.286 54.854C300.286 56.754 300.844 58.2867 301.958 59.452C303.098 60.6173 304.542 61.2 306.29 61.2ZM332.67 44.48C334.646 44.48 336.407 44.9107 337.952 45.772C339.523 46.6333 340.752 47.8493 341.638 49.42C342.525 50.9907 342.968 52.802 342.968 54.854C342.968 56.906 342.525 58.73 341.638 60.326C340.752 61.8967 339.523 63.1127 337.952 63.974C336.407 64.8353 334.646 65.266 332.67 65.266C329.934 65.266 327.768 64.354 326.172 62.53V72.372H321.422V44.708H325.944V47.368C326.73 46.4053 327.692 45.6833 328.832 45.202C329.998 44.7207 331.277 44.48 332.67 44.48ZM332.138 61.2C333.886 61.2 335.318 60.6173 336.432 59.452C337.572 58.2867 338.142 56.754 338.142 54.854C338.142 52.954 337.572 51.4213 336.432 50.256C335.318 49.0907 333.886 48.508 332.138 48.508C330.998 48.508 329.972 48.774 329.06 49.306C328.148 49.8127 327.426 50.5473 326.894 51.51C326.362 52.4727 326.096 53.5873 326.096 54.854C326.096 56.1207 326.362 57.2353 326.894 58.198C327.426 59.1607 328.148 59.908 329.06 60.44C329.972 60.9467 330.998 61.2 332.138 61.2ZM366.309 54.968C366.309 55.2973 366.284 55.766 366.233 56.374H350.311C350.59 57.8687 351.312 59.0593 352.477 59.946C353.668 60.8073 355.137 61.238 356.885 61.238C359.115 61.238 360.951 60.5033 362.395 59.034L364.941 61.96C364.029 63.0493 362.877 63.8727 361.483 64.43C360.09 64.9873 358.519 65.266 356.771 65.266C354.542 65.266 352.579 64.8227 350.881 63.936C349.184 63.0493 347.867 61.8207 346.929 60.25C346.017 58.654 345.561 56.8553 345.561 54.854C345.561 52.878 346.005 51.1047 346.891 49.534C347.803 47.938 349.057 46.6967 350.653 45.81C352.249 44.9233 354.048 44.48 356.049 44.48C358.025 44.48 359.786 44.9233 361.331 45.81C362.902 46.6713 364.118 47.9 364.979 49.496C365.866 51.0667 366.309 52.8907 366.309 54.968ZM356.049 48.28C354.529 48.28 353.237 48.736 352.173 49.648C351.135 50.5347 350.501 51.7253 350.273 53.22H361.787C361.585 51.7507 360.964 50.56 359.925 49.648C358.887 48.736 357.595 48.28 356.049 48.28ZM375.154 47.672C376.522 45.544 378.929 44.48 382.374 44.48V49.002C381.969 48.926 381.601 48.888 381.272 48.888C379.423 48.888 377.979 49.4327 376.94 50.522C375.901 51.586 375.382 53.1313 375.382 55.158V65H370.632V44.708H375.154V47.672Z" fill="white"/>
<path d="M15.08 80.632C15.544 80.784 15.912 81.04 16.184 81.4C16.456 81.752 16.592 82.192 16.592 82.72C16.592 83.448 16.312 84.012 15.752 84.412C15.192 84.804 14.376 85 13.304 85H9.128V76.6H13.064C14.056 76.6 14.82 76.796 15.356 77.188C15.892 77.572 16.16 78.104 16.16 78.784C16.16 79.2 16.064 79.568 15.872 79.888C15.68 80.208 15.416 80.456 15.08 80.632ZM10.688 77.824V80.14H12.896C13.44 80.14 13.856 80.044 14.144 79.852C14.44 79.652 14.588 79.364 14.588 78.988C14.588 78.604 14.44 78.316 14.144 78.124C13.856 77.924 13.44 77.824 12.896 77.824H10.688ZM13.208 83.776C14.416 83.776 15.02 83.372 15.02 82.564C15.02 81.756 14.416 81.352 13.208 81.352H10.688V83.776H13.208ZM24.0769 78.592V85H22.6489V84.184C22.4089 84.472 22.1089 84.696 21.7489 84.856C21.3889 85.008 21.0009 85.084 20.5849 85.084C19.7289 85.084 19.0529 84.848 18.5569 84.376C18.0689 83.896 17.8249 83.188 17.8249 82.252V78.592H19.3249V82.048C19.3249 82.624 19.4529 83.056 19.7089 83.344C19.9729 83.624 20.3449 83.764 20.8249 83.764C21.3609 83.764 21.7849 83.6 22.0969 83.272C22.4169 82.936 22.5769 82.456 22.5769 81.832V78.592H24.0769ZM27.7809 85.084C27.2609 85.084 26.7529 85.016 26.2569 84.88C25.7609 84.744 25.3649 84.572 25.0689 84.364L25.6449 83.224C25.9329 83.416 26.2769 83.572 26.6769 83.692C27.0849 83.804 27.4849 83.86 27.8769 83.86C28.7729 83.86 29.2209 83.624 29.2209 83.152C29.2209 82.928 29.1049 82.772 28.8729 82.684C28.6489 82.596 28.2849 82.512 27.7809 82.432C27.2529 82.352 26.8209 82.26 26.4849 82.156C26.1569 82.052 25.8689 81.872 25.6209 81.616C25.3809 81.352 25.2609 80.988 25.2609 80.524C25.2609 79.916 25.5129 79.432 26.0169 79.072C26.5289 78.704 27.2169 78.52 28.0809 78.52C28.5209 78.52 28.9609 78.572 29.4009 78.676C29.8409 78.772 30.2009 78.904 30.4809 79.072L29.9049 80.212C29.3609 79.892 28.7489 79.732 28.0689 79.732C27.6289 79.732 27.2929 79.8 27.0609 79.936C26.8369 80.064 26.7249 80.236 26.7249 80.452C26.7249 80.692 26.8449 80.864 27.0849 80.968C27.3329 81.064 27.7129 81.156 28.2249 81.244C28.7369 81.324 29.1569 81.416 29.4849 81.52C29.8129 81.624 30.0929 81.8 30.3249 82.048C30.5649 82.296 30.6849 82.648 30.6849 83.104C30.6849 83.704 30.4249 84.184 29.9049 84.544C29.3849 84.904 28.6769 85.084 27.7809 85.084ZM31.7367 78.592H33.2367V85H31.7367V78.592ZM32.4927 77.536C32.2207 77.536 31.9927 77.452 31.8087 77.284C31.6247 77.108 31.5327 76.892 31.5327 76.636C31.5327 76.38 31.6247 76.168 31.8087 76C31.9927 75.824 32.2207 75.736 32.4927 75.736C32.7647 75.736 32.9927 75.82 33.1767 75.988C33.3607 76.148 33.4527 76.352 33.4527 76.6C33.4527 76.864 33.3607 77.088 33.1767 77.272C33.0007 77.448 32.7727 77.536 32.4927 77.536ZM38.6014 78.52C39.4094 78.52 40.0574 78.756 40.5454 79.228C41.0334 79.7 41.2774 80.4 41.2774 81.328V85H39.7774V81.52C39.7774 80.96 39.6454 80.54 39.3814 80.26C39.1174 79.972 38.7414 79.828 38.2534 79.828C37.7014 79.828 37.2654 79.996 36.9454 80.332C36.6254 80.66 36.4654 81.136 36.4654 81.76V85H34.9654V78.592H36.3934V79.42C36.6414 79.124 36.9534 78.9 37.3294 78.748C37.7054 78.596 38.1294 78.52 38.6014 78.52ZM49.0228 81.832C49.0228 81.936 49.0148 82.084 48.9988 82.276H43.9708C44.0588 82.748 44.2868 83.124 44.6548 83.404C45.0308 83.676 45.4948 83.812 46.0468 83.812C46.7508 83.812 47.3308 83.58 47.7868 83.116L48.5908 84.04C48.3028 84.384 47.9388 84.644 47.4988 84.82C47.0588 84.996 46.5628 85.084 46.0108 85.084C45.3068 85.084 44.6868 84.944 44.1508 84.664C43.6148 84.384 43.1988 83.996 42.9028 83.5C42.6148 82.996 42.4708 82.428 42.4708 81.796C42.4708 81.172 42.6108 80.612 42.8908 80.116C43.1788 79.612 43.5748 79.22 44.0788 78.94C44.5828 78.66 45.1508 78.52 45.7828 78.52C46.4068 78.52 46.9628 78.66 47.4508 78.94C47.9468 79.212 48.3308 79.6 48.6028 80.104C48.8828 80.6 49.0228 81.176 49.0228 81.832ZM45.7828 79.72C45.3028 79.72 44.8948 79.864 44.5588 80.152C44.2308 80.432 44.0308 80.808 43.9588 81.28H47.5948C47.5308 80.816 47.3348 80.44 47.0068 80.152C46.6788 79.864 46.2708 79.72 45.7828 79.72ZM52.2037 85.084C51.6837 85.084 51.1757 85.016 50.6797 84.88C50.1837 84.744 49.7877 84.572 49.4917 84.364L50.0677 83.224C50.3557 83.416 50.6997 83.572 51.0997 83.692C51.5077 83.804 51.9077 83.86 52.2997 83.86C53.1957 83.86 53.6437 83.624 53.6437 83.152C53.6437 82.928 53.5277 82.772 53.2957 82.684C53.0717 82.596 52.7077 82.512 52.2037 82.432C51.6757 82.352 51.2437 82.26 50.9077 82.156C50.5797 82.052 50.2917 81.872 50.0437 81.616C49.8037 81.352 49.6837 80.988 49.6837 80.524C49.6837 79.916 49.9357 79.432 50.4397 79.072C50.9517 78.704 51.6397 78.52 52.5037 78.52C52.9437 78.52 53.3837 78.572 53.8237 78.676C54.2637 78.772 54.6237 78.904 54.9037 79.072L54.3277 80.212C53.7837 79.892 53.1717 79.732 52.4917 79.732C52.0517 79.732 51.7157 79.8 51.4837 79.936C51.2597 80.064 51.1477 80.236 51.1477 80.452C51.1477 80.692 51.2677 80.864 51.5077 80.968C51.7557 81.064 52.1357 81.156 52.6477 81.244C53.1597 81.324 53.5797 81.416 53.9077 81.52C54.2357 81.624 54.5157 81.8 54.7477 82.048C54.9877 82.296 55.1077 82.648 55.1077 83.104C55.1077 83.704 54.8477 84.184 54.3277 84.544C53.8077 84.904 53.0997 85.084 52.2037 85.084ZM58.1395 85.084C57.6195 85.084 57.1115 85.016 56.6155 84.88C56.1195 84.744 55.7235 84.572 55.4275 84.364L56.0035 83.224C56.2915 83.416 56.6355 83.572 57.0355 83.692C57.4435 83.804 57.8435 83.86 58.2355 83.86C59.1315 83.86 59.5795 83.624 59.5795 83.152C59.5795 82.928 59.4635 82.772 59.2315 82.684C59.0075 82.596 58.6435 82.512 58.1395 82.432C57.6115 82.352 57.1795 82.26 56.8435 82.156C56.5155 82.052 56.2275 81.872 55.9795 81.616C55.7395 81.352 55.6195 80.988 55.6195 80.524C55.6195 79.916 55.8715 79.432 56.3755 79.072C56.8875 78.704 57.5755 78.52 58.4395 78.52C58.8795 78.52 59.3195 78.572 59.7595 78.676C60.1995 78.772 60.5595 78.904 60.8395 79.072L60.2635 80.212C59.7195 79.892 59.1075 79.732 58.4275 79.732C57.9875 79.732 57.6515 79.8 57.4195 79.936C57.1955 80.064 57.0835 80.236 57.0835 80.452C57.0835 80.692 57.2035 80.864 57.4435 80.968C57.6915 81.064 58.0715 81.156 58.5835 81.244C59.0955 81.324 59.5155 81.416 59.8435 81.52C60.1715 81.624 60.4515 81.8 60.6835 82.048C60.9235 82.296 61.0435 82.648 61.0435 83.104C61.0435 83.704 60.7835 84.184 60.2635 84.544C59.7435 84.904 59.0355 85.084 58.1395 85.084ZM65.3157 76.6H68.9877C69.8837 76.6 70.6797 76.776 71.3757 77.128C72.0717 77.472 72.6117 77.964 72.9957 78.604C73.3797 79.236 73.5717 79.968 73.5717 80.8C73.5717 81.632 73.3797 82.368 72.9957 83.008C72.6117 83.64 72.0717 84.132 71.3757 84.484C70.6797 84.828 69.8837 85 68.9877 85H65.3157V76.6ZM68.9157 83.68C69.5317 83.68 70.0717 83.564 70.5357 83.332C71.0077 83.092 71.3677 82.756 71.6157 82.324C71.8717 81.884 71.9997 81.376 71.9997 80.8C71.9997 80.224 71.8717 79.72 71.6157 79.288C71.3677 78.848 71.0077 78.512 70.5357 78.28C70.0717 78.04 69.5317 77.92 68.9157 77.92H66.8757V83.68H68.9157ZM80.8697 81.832C80.8697 81.936 80.8617 82.084 80.8457 82.276H75.8177C75.9057 82.748 76.1337 83.124 76.5017 83.404C76.8777 83.676 77.3417 83.812 77.8937 83.812C78.5977 83.812 79.1777 83.58 79.6337 83.116L80.4377 84.04C80.1497 84.384 79.7857 84.644 79.3457 84.82C78.9057 84.996 78.4097 85.084 77.8577 85.084C77.1537 85.084 76.5337 84.944 75.9977 84.664C75.4617 84.384 75.0457 83.996 74.7497 83.5C74.4617 82.996 74.3177 82.428 74.3177 81.796C74.3177 81.172 74.4577 80.612 74.7377 80.116C75.0257 79.612 75.4217 79.22 75.9257 78.94C76.4297 78.66 76.9977 78.52 77.6297 78.52C78.2537 78.52 78.8097 78.66 79.2977 78.94C79.7937 79.212 80.1777 79.6 80.4497 80.104C80.7297 80.6 80.8697 81.176 80.8697 81.832ZM77.6297 79.72C77.1497 79.72 76.7417 79.864 76.4057 80.152C76.0777 80.432 75.8777 80.808 75.8057 81.28H79.4417C79.3777 80.816 79.1817 80.44 78.8537 80.152C78.5257 79.864 78.1177 79.72 77.6297 79.72ZM87.9534 78.592L85.2054 85H83.6574L80.9094 78.592H82.4694L84.4614 83.344L86.5134 78.592H87.9534ZM94.4991 81.832C94.4991 81.936 94.4911 82.084 94.4751 82.276H89.4471C89.5351 82.748 89.7631 83.124 90.1311 83.404C90.5071 83.676 90.9711 83.812 91.5231 83.812C92.2271 83.812 92.8071 83.58 93.2631 83.116L94.0671 84.04C93.7791 84.384 93.4151 84.644 92.9751 84.82C92.5351 84.996 92.0391 85.084 91.4871 85.084C90.7831 85.084 90.1631 84.944 89.6271 84.664C89.0911 84.384 88.6751 83.996 88.3791 83.5C88.0911 82.996 87.9471 82.428 87.9471 81.796C87.9471 81.172 88.0871 80.612 88.3671 80.116C88.6551 79.612 89.0511 79.22 89.5551 78.94C90.0591 78.66 90.6271 78.52 91.2591 78.52C91.8831 78.52 92.4391 78.66 92.9271 78.94C93.4231 79.212 93.8071 79.6 94.0791 80.104C94.3591 80.6 94.4991 81.176 94.4991 81.832ZM91.2591 79.72C90.7791 79.72 90.3711 79.864 90.0351 80.152C89.7071 80.432 89.5071 80.808 89.4351 81.28H93.0711C93.0071 80.816 92.8111 80.44 92.4831 80.152C92.1551 79.864 91.7471 79.72 91.2591 79.72ZM95.6999 76.096H97.1999V85H95.6999V76.096ZM101.809 85.084C101.161 85.084 100.577 84.944 100.057 84.664C99.5367 84.384 99.1287 83.996 98.8327 83.5C98.5447 82.996 98.4007 82.428 98.4007 81.796C98.4007 81.164 98.5447 80.6 98.8327 80.104C99.1287 79.608 99.5367 79.22 100.057 78.94C100.577 78.66 101.161 78.52 101.809 78.52C102.465 78.52 103.053 78.66 103.573 78.94C104.093 79.22 104.497 79.608 104.785 80.104C105.081 80.6 105.229 81.164 105.229 81.796C105.229 82.428 105.081 82.996 104.785 83.5C104.497 83.996 104.093 84.384 103.573 84.664C103.053 84.944 102.465 85.084 101.809 85.084ZM101.809 83.8C102.361 83.8 102.817 83.616 103.177 83.248C103.537 82.88 103.717 82.396 103.717 81.796C103.717 81.196 103.537 80.712 103.177 80.344C102.817 79.976 102.361 79.792 101.809 79.792C101.257 79.792 100.801 79.976 100.441 80.344C100.089 80.712 99.9127 81.196 99.9127 81.796C99.9127 82.396 100.089 82.88 100.441 83.248C100.801 83.616 101.257 83.8 101.809 83.8ZM109.975 78.52C110.599 78.52 111.155 78.656 111.643 78.928C112.139 79.2 112.527 79.584 112.807 80.08C113.087 80.576 113.227 81.148 113.227 81.796C113.227 82.444 113.087 83.02 112.807 83.524C112.527 84.02 112.139 84.404 111.643 84.676C111.155 84.948 110.599 85.084 109.975 85.084C109.111 85.084 108.427 84.796 107.923 84.22V87.328H106.423V78.592H107.851V79.432C108.099 79.128 108.403 78.9 108.763 78.748C109.131 78.596 109.535 78.52 109.975 78.52ZM109.807 83.8C110.359 83.8 110.811 83.616 111.163 83.248C111.523 82.88 111.703 82.396 111.703 81.796C111.703 81.196 111.523 80.712 111.163 80.344C110.811 79.976 110.359 79.792 109.807 79.792C109.447 79.792 109.123 79.876 108.835 80.044C108.547 80.204 108.319 80.436 108.151 80.74C107.983 81.044 107.899 81.396 107.899 81.796C107.899 82.196 107.983 82.548 108.151 82.852C108.319 83.156 108.547 83.392 108.835 83.56C109.123 83.72 109.447 83.8 109.807 83.8ZM120.434 81.832C120.434 81.936 120.426 82.084 120.41 82.276H115.382C115.47 82.748 115.698 83.124 116.066 83.404C116.442 83.676 116.906 83.812 117.458 83.812C118.162 83.812 118.742 83.58 119.198 83.116L120.002 84.04C119.714 84.384 119.35 84.644 118.91 84.82C118.47 84.996 117.974 85.084 117.422 85.084C116.718 85.084 116.098 84.944 115.562 84.664C115.026 84.384 114.61 83.996 114.314 83.5C114.026 82.996 113.882 82.428 113.882 81.796C113.882 81.172 114.022 80.612 114.302 80.116C114.59 79.612 114.986 79.22 115.49 78.94C115.994 78.66 116.562 78.52 117.194 78.52C117.818 78.52 118.374 78.66 118.862 78.94C119.358 79.212 119.742 79.6 120.014 80.104C120.294 80.6 120.434 81.176 120.434 81.832ZM117.194 79.72C116.714 79.72 116.306 79.864 115.97 80.152C115.642 80.432 115.442 80.808 115.37 81.28H119.006C118.942 80.816 118.746 80.44 118.418 80.152C118.09 79.864 117.682 79.72 117.194 79.72ZM123.062 79.528C123.494 78.856 124.254 78.52 125.342 78.52V79.948C125.214 79.924 125.098 79.912 124.994 79.912C124.41 79.912 123.954 80.084 123.626 80.428C123.298 80.764 123.134 81.252 123.134 81.892V85H121.634V78.592H123.062V79.528Z" fill="white"/>
<path d="M140.832 77.92H138.048V76.6H145.176V77.92H142.392V85H140.832V77.92ZM151.331 81.832C151.331 81.936 151.323 82.084 151.307 82.276H146.279C146.367 82.748 146.595 83.124 146.963 83.404C147.339 83.676 147.803 83.812 148.355 83.812C149.059 83.812 149.639 83.58 150.095 83.116L150.899 84.04C150.611 84.384 150.247 84.644 149.807 84.82C149.367 84.996 148.871 85.084 148.319 85.084C147.615 85.084 146.995 84.944 146.459 84.664C145.923 84.384 145.507 83.996 145.211 83.5C144.923 82.996 144.779 82.428 144.779 81.796C144.779 81.172 144.919 80.612 145.199 80.116C145.487 79.612 145.883 79.22 146.387 78.94C146.891 78.66 147.459 78.52 148.091 78.52C148.715 78.52 149.271 78.66 149.759 78.94C150.255 79.212 150.639 79.6 150.911 80.104C151.191 80.6 151.331 81.176 151.331 81.832ZM148.091 79.72C147.611 79.72 147.203 79.864 146.867 80.152C146.539 80.432 146.339 80.808 146.267 81.28H149.903C149.839 80.816 149.643 80.44 149.315 80.152C148.987 79.864 148.579 79.72 148.091 79.72ZM155.471 85.084C154.807 85.084 154.211 84.944 153.683 84.664C153.155 84.384 152.743 83.996 152.447 83.5C152.151 82.996 152.003 82.428 152.003 81.796C152.003 81.164 152.151 80.6 152.447 80.104C152.743 79.608 153.151 79.22 153.671 78.94C154.199 78.66 154.799 78.52 155.471 78.52C156.103 78.52 156.655 78.648 157.127 78.904C157.607 79.16 157.967 79.528 158.207 80.008L157.055 80.68C156.871 80.384 156.639 80.164 156.359 80.02C156.087 79.868 155.787 79.792 155.459 79.792C154.899 79.792 154.435 79.976 154.067 80.344C153.699 80.704 153.515 81.188 153.515 81.796C153.515 82.404 153.695 82.892 154.055 83.26C154.423 83.62 154.891 83.8 155.459 83.8C155.787 83.8 156.087 83.728 156.359 83.584C156.639 83.432 156.871 83.208 157.055 82.912L158.207 83.584C157.959 84.064 157.595 84.436 157.115 84.7C156.643 84.956 156.095 85.084 155.471 85.084ZM162.841 78.52C163.649 78.52 164.297 78.756 164.785 79.228C165.273 79.7 165.517 80.4 165.517 81.328V85H164.017V81.52C164.017 80.96 163.885 80.54 163.621 80.26C163.357 79.972 162.981 79.828 162.493 79.828C161.941 79.828 161.505 79.996 161.185 80.332C160.865 80.66 160.705 81.136 160.705 81.76V85H159.205V76.096H160.705V79.336C160.953 79.072 161.257 78.872 161.617 78.736C161.985 78.592 162.393 78.52 162.841 78.52ZM182.677 76.6L179.893 85H178.237L176.161 78.784L174.049 85H172.381L169.597 76.6H171.217L173.305 82.984L175.477 76.6H176.917L179.041 83.02L181.189 76.6H182.677ZM184.745 79.528C185.177 78.856 185.937 78.52 187.025 78.52V79.948C186.897 79.924 186.781 79.912 186.677 79.912C186.093 79.912 185.637 80.084 185.309 80.428C184.981 80.764 184.817 81.252 184.817 81.892V85H183.317V78.592H184.745V79.528ZM188.058 78.592H189.558V85H188.058V78.592ZM188.814 77.536C188.542 77.536 188.314 77.452 188.13 77.284C187.946 77.108 187.854 76.892 187.854 76.636C187.854 76.38 187.946 76.168 188.13 76C188.314 75.824 188.542 75.736 188.814 75.736C189.086 75.736 189.314 75.82 189.498 75.988C189.682 76.148 189.774 76.352 189.774 76.6C189.774 76.864 189.682 77.088 189.498 77.272C189.322 77.448 189.094 77.536 188.814 77.536ZM195.139 84.652C194.963 84.796 194.747 84.904 194.491 84.976C194.243 85.048 193.979 85.084 193.699 85.084C192.995 85.084 192.451 84.9 192.067 84.532C191.683 84.164 191.491 83.628 191.491 82.924V79.84H190.435V78.64H191.491V77.176H192.991V78.64H194.707V79.84H192.991V82.888C192.991 83.2 193.067 83.44 193.219 83.608C193.371 83.768 193.591 83.848 193.879 83.848C194.215 83.848 194.495 83.76 194.719 83.584L195.139 84.652ZM201.946 81.832C201.946 81.936 201.938 82.084 201.922 82.276H196.894C196.982 82.748 197.21 83.124 197.578 83.404C197.954 83.676 198.418 83.812 198.97 83.812C199.674 83.812 200.254 83.58 200.71 83.116L201.514 84.04C201.226 84.384 200.862 84.644 200.422 84.82C199.982 84.996 199.486 85.084 198.934 85.084C198.23 85.084 197.61 84.944 197.074 84.664C196.538 84.384 196.122 83.996 195.826 83.5C195.538 82.996 195.394 82.428 195.394 81.796C195.394 81.172 195.534 80.612 195.814 80.116C196.102 79.612 196.498 79.22 197.002 78.94C197.506 78.66 198.074 78.52 198.706 78.52C199.33 78.52 199.886 78.66 200.374 78.94C200.87 79.212 201.254 79.6 201.526 80.104C201.806 80.6 201.946 81.176 201.946 81.832ZM198.706 79.72C198.226 79.72 197.818 79.864 197.482 80.152C197.154 80.432 196.954 80.808 196.882 81.28H200.518C200.454 80.816 200.258 80.44 199.93 80.152C199.602 79.864 199.194 79.72 198.706 79.72ZM204.574 79.528C205.006 78.856 205.766 78.52 206.854 78.52V79.948C206.726 79.924 206.61 79.912 206.506 79.912C205.922 79.912 205.466 80.084 205.138 80.428C204.81 80.764 204.646 81.252 204.646 81.892V85H203.146V78.592H204.574V79.528Z" fill="white"/>
</svg>
