<svg width="20" height="20" viewBox="0 0 20 20" fill="none" xmlns="http://www.w3.org/2000/svg">
<path d="M19.6576 3.57727C19.4756 1.87164 18.1285 0.524292 16.4227 0.342407C12.1451 -0.114136 7.85492 -0.114136 3.57742 0.342407C1.87164 0.524445 0.524445 1.87164 0.342407 3.57727C-0.114136 7.85477 -0.114136 12.1451 0.342407 16.4226C0.524445 18.1284 1.87164 19.4756 3.57727 19.6576C7.85477 20.1141 12.1451 20.1141 16.4227 19.6576C18.1285 19.4756 19.4756 18.1284 19.6576 16.4226C20.1141 12.1451 20.1141 7.85492 19.6576 3.57727Z" fill="#181818" fill-opacity="0.9"/>
<path d="M18.5699 4.3007C18.4085 2.78719 17.2131 1.59166 15.6994 1.43007C11.9037 1.0251 8.0966 1.0251 4.30083 1.43007C2.78731 1.59166 1.59178 2.78719 1.43019 4.3007C1.02522 8.09648 1.02522 11.9035 1.43019 15.6992C1.59178 17.2128 2.78731 18.4084 4.30083 18.5698C8.0966 18.9749 11.9037 18.9749 15.6993 18.5698C17.213 18.4084 18.4085 17.2128 18.5699 15.6992C18.9751 11.9035 18.9751 8.09648 18.5699 4.3007Z" fill="url(#paint0_linear_202_205)"/>
<path d="M0.299805 16.008C0.313538 16.1462 0.327728 16.2845 0.342529 16.4227C0.524567 18.1284 1.87177 19.4756 3.57755 19.6576C7.85504 20.1141 12.1454 20.1141 16.4229 19.6576C18.1286 19.4756 19.4757 18.1284 19.6577 16.4227C19.6725 16.2845 19.6867 16.1462 19.7006 16.008H0.299805Z" fill="#181818" fill-opacity="0.9"/>
<path d="M19.6575 16.4226C19.9029 14.1241 20.0161 11.8221 19.9978 9.52027L15.4262 4.94873C14.8551 4.29673 14.0209 3.88977 13.0407 3.85453C11.0248 3.78189 9.00259 3.78556 6.98645 3.85483C5.31195 3.91251 4.14099 5.038 3.8407 6.6922C3.78775 6.98426 3.75601 7.28012 3.71436 7.57431V12.4239C3.7374 12.581 3.77127 12.7374 3.7818 12.8955C3.84894 13.9017 4.26245 14.7635 4.92453 15.3465L9.57663 19.9985C11.8596 20.0145 14.1428 19.901 16.4226 19.6576C18.1284 19.4756 19.4755 18.1284 19.6575 16.4226Z" fill="#181818" fill-opacity="0.9"/>
<path d="M19.6574 16.4227C19.4756 18.1282 18.1281 19.4757 16.4226 19.6576C14.1431 19.9008 11.8594 20.0145 9.57672 19.9985L4.93164 15.3534C5.47012 15.8247 6.17203 16.1118 6.98654 16.1424C9.00223 16.2181 11.0249 16.2161 13.0406 16.1435C14.8637 16.0776 16.183 14.7282 16.2399 12.9051C16.3007 10.9694 16.3007 9.02863 16.2399 7.0929C16.214 6.25183 15.9187 5.51178 15.4292 4.95178L19.9979 9.52042C20.0159 11.8219 19.9026 14.1243 19.6574 16.4227Z" fill="#181818" fill-opacity="0.9"/>
<path d="M12.3597 7.83432C11.7741 7.19666 10.9338 6.79657 9.99982 6.79657C8.23071 6.79657 6.79639 8.2309 6.79639 10C6.79639 10.934 7.19647 11.7743 7.83414 12.3599L15.2458 19.7716C15.6381 19.7374 16.0304 19.6994 16.4224 19.6576C18.1282 19.4756 19.4754 18.1284 19.6574 16.4226C19.6992 16.0306 19.7372 15.6383 19.7714 15.246L12.3597 7.83432Z" fill="#181818" fill-opacity="0.9"/>
<path d="M19.9613 12.1544L13.9964 6.18958C13.8572 6.00693 13.6379 5.88837 13.3906 5.88837C12.9698 5.88837 12.6284 6.22955 12.6284 6.65054C12.6284 6.89789 12.747 7.11716 12.9296 7.25632L19.8547 14.1815C19.9017 13.506 19.9372 12.8302 19.9613 12.1544Z" fill="#181818" fill-opacity="0.9"/>
<path d="M3.71436 7.57431C3.75601 7.28012 3.78775 6.98426 3.8407 6.6922C4.14084 5.038 5.31195 3.91251 6.98645 3.85483C9.00259 3.78556 11.0248 3.78189 13.0407 3.85453C14.8632 3.92014 16.1831 5.26963 16.24 7.09275C16.3006 9.02863 16.3006 10.9692 16.24 12.9051C16.1831 14.7282 14.8636 16.0776 13.0408 16.1433C11.025 16.2161 9.00229 16.218 6.9866 16.1423C5.16379 16.0738 3.90372 14.7212 3.7818 12.8954C3.77127 12.7374 3.7374 12.5809 3.71436 12.4237C3.71436 10.8072 3.71436 9.19068 3.71436 7.57431ZM10.0016 15.0629C10.9241 15.0629 11.8476 15.0905 12.7689 15.0565C14.2135 15.0029 15.102 14.1408 15.1357 12.6976C15.1775 10.8994 15.1775 9.09867 15.1357 7.30027C15.102 5.85739 14.2129 4.97513 12.7689 4.94446C10.9362 4.9057 9.10147 4.90601 7.26874 4.94446C5.83578 4.97452 4.94467 5.83893 4.90576 7.26593C4.85632 9.08692 4.85632 10.9111 4.90576 12.7321C4.94467 14.1589 5.83578 15.0034 7.26889 15.0565C8.17862 15.0903 9.09064 15.0629 10.0016 15.0629Z" fill="#181818" fill-opacity="0.9"/>
<path d="M3.71436 7.57431C3.75601 7.28012 3.78775 6.98426 3.8407 6.6922C4.14084 5.038 5.31195 3.91251 6.98645 3.85483C9.00259 3.78556 11.0248 3.78189 13.0407 3.85453C14.8632 3.92014 16.1831 5.26963 16.24 7.09275C16.3006 9.02863 16.3006 10.9692 16.24 12.9051C16.1831 14.7282 14.8636 16.0776 13.0408 16.1433C11.025 16.2161 9.00229 16.218 6.9866 16.1423C5.16379 16.0738 3.90372 14.7212 3.7818 12.8954C3.77127 12.7374 3.7374 12.5809 3.71436 12.4237C3.71436 10.8072 3.71436 9.19068 3.71436 7.57431ZM10.0016 15.0629C10.9241 15.0629 11.8476 15.0905 12.7689 15.0565C14.2135 15.0029 15.102 14.1408 15.1357 12.6976C15.1775 10.8994 15.1775 9.09867 15.1357 7.30027C15.102 5.85739 14.2129 4.97513 12.7689 4.94446C10.9362 4.9057 9.10147 4.90601 7.26874 4.94446C5.83578 4.97452 4.94467 5.83893 4.90576 7.26593C4.85632 9.08692 4.85632 10.9111 4.90576 12.7321C4.94467 14.1589 5.83578 15.0034 7.26889 15.0565C8.17862 15.0903 9.09064 15.0629 10.0016 15.0629Z" fill="white"/>
<path d="M9.99982 6.79675C8.23071 6.79675 6.79639 8.23093 6.79639 10C6.79639 11.7693 8.23071 13.2035 9.99982 13.2035C11.7691 13.2035 13.2032 11.7693 13.2032 10C13.2032 8.23093 11.7691 6.79675 9.99982 6.79675ZM9.99982 12.1006C8.83969 12.1006 7.89929 11.1602 7.89929 10C7.89929 8.8399 8.83969 7.89951 9.99982 7.89951C11.1599 7.89951 12.1003 8.8399 12.1003 10C12.1003 11.1602 11.1599 12.1006 9.99982 12.1006Z" fill="white"/>
<path d="M14.1526 6.65054C14.1526 7.07138 13.8114 7.41257 13.3906 7.41257C12.9698 7.41257 12.6284 7.07138 12.6284 6.65054C12.6284 6.22955 12.9698 5.88837 13.3906 5.88837C13.8114 5.88837 14.1526 6.22955 14.1526 6.65054Z" fill="white"/>
<defs>
<linearGradient id="paint0_linear_202_205" x1="7.67094" y1="8.68985" x2="-26.2114" y2="-10.369" gradientUnits="userSpaceOnUse">
<stop stop-color="#A1B5D8" stop-opacity="0"/>
<stop offset="0.3094" stop-color="#90A2BD" stop-opacity="0.309804"/>
<stop offset="0.7554" stop-color="#7C8B9C" stop-opacity="0.756863"/>
<stop offset="1" stop-color="#748290"/>
</linearGradient>
</defs>
</svg>
