<svg width="508" height="133" viewBox="0 0 508 133" fill="none" xmlns="http://www.w3.org/2000/svg">
<path d="M151.837 31.6V88H136.157V56.88L125.517 88H112.397L101.677 56.64V88H85.9969V31.6H104.957L119.117 68.24L132.957 31.6H151.837ZM203.403 65.04C203.403 66.2667 203.323 67.4933 203.163 68.72H173.483C173.643 71.1733 174.309 73.0133 175.483 74.24C176.709 75.4133 178.256 76 180.123 76C182.736 76 184.603 74.8267 185.723 72.48H202.443C201.749 75.5733 200.389 78.3467 198.363 80.8C196.389 83.2 193.883 85.0933 190.843 86.48C187.803 87.8667 184.443 88.56 180.763 88.56C176.336 88.56 172.389 87.6267 168.923 85.76C165.509 83.8933 162.816 81.2267 160.843 77.76C158.923 74.2933 157.963 70.2133 157.963 65.52C157.963 60.8267 158.923 56.7733 160.843 53.36C162.763 49.8933 165.429 47.2267 168.843 45.36C172.309 43.4933 176.283 42.56 180.763 42.56C185.189 42.56 189.109 43.4667 192.523 45.28C195.936 47.0933 198.603 49.7067 200.523 53.12C202.443 56.48 203.403 60.4533 203.403 65.04ZM187.403 61.12C187.403 59.2 186.763 57.7067 185.483 56.64C184.203 55.52 182.603 54.96 180.683 54.96C178.763 54.96 177.189 55.4933 175.963 56.56C174.736 57.5733 173.936 59.0933 173.563 61.12H187.403ZM252.459 65.04C252.459 66.2667 252.379 67.4933 252.219 68.72H222.539C222.699 71.1733 223.366 73.0133 224.539 74.24C225.766 75.4133 227.313 76 229.179 76C231.793 76 233.659 74.8267 234.779 72.48H251.499C250.806 75.5733 249.446 78.3467 247.419 80.8C245.446 83.2 242.939 85.0933 239.899 86.48C236.859 87.8667 233.499 88.56 229.819 88.56C225.393 88.56 221.446 87.6267 217.979 85.76C214.566 83.8933 211.873 81.2267 209.899 77.76C207.979 74.2933 207.019 70.2133 207.019 65.52C207.019 60.8267 207.979 56.7733 209.899 53.36C211.819 49.8933 214.486 47.2267 217.899 45.36C221.366 43.4933 225.339 42.56 229.819 42.56C234.246 42.56 238.166 43.4667 241.579 45.28C244.993 47.0933 247.659 49.7067 249.579 53.12C251.499 56.48 252.459 60.4533 252.459 65.04ZM236.459 61.12C236.459 59.2 235.819 57.7067 234.539 56.64C233.259 55.52 231.659 54.96 229.739 54.96C227.819 54.96 226.246 55.4933 225.019 56.56C223.793 57.5733 222.993 59.0933 222.619 61.12H236.459ZM285.116 74.64V88H278.316C266.85 88 261.116 82.32 261.116 70.96V56.16H255.596V43.12H261.116V32.24H276.876V43.12H285.036V56.16H276.876V71.2C276.876 72.4267 277.143 73.3067 277.676 73.84C278.263 74.3733 279.223 74.64 280.556 74.64H285.116ZM372.981 31.6V88H357.301V56.88L346.661 88H333.541L322.821 56.64V88H307.141V31.6H326.101L340.261 68.24L354.101 31.6H372.981ZM424.546 65.04C424.546 66.2667 424.466 67.4933 424.306 68.72H394.626C394.786 71.1733 395.453 73.0133 396.626 74.24C397.853 75.4133 399.4 76 401.266 76C403.88 76 405.746 74.8267 406.866 72.48H423.586C422.893 75.5733 421.533 78.3467 419.506 80.8C417.533 83.2 415.026 85.0933 411.986 86.48C408.946 87.8667 405.586 88.56 401.906 88.56C397.48 88.56 393.533 87.6267 390.066 85.76C386.653 83.8933 383.96 81.2267 381.986 77.76C380.066 74.2933 379.106 70.2133 379.106 65.52C379.106 60.8267 380.066 56.7733 381.986 53.36C383.906 49.8933 386.573 47.2267 389.986 45.36C393.453 43.4933 397.426 42.56 401.906 42.56C406.333 42.56 410.253 43.4667 413.666 45.28C417.08 47.0933 419.746 49.7067 421.666 53.12C423.586 56.48 424.546 60.4533 424.546 65.04ZM408.546 61.12C408.546 59.2 407.906 57.7067 406.626 56.64C405.346 55.52 403.746 54.96 401.826 54.96C399.906 54.96 398.333 55.4933 397.106 56.56C395.88 57.5733 395.08 59.0933 394.706 61.12H408.546Z" fill="black" fill-opacity="0.8"/>
<path d="M100.778 108.352C100.416 107.754 99.9142 107.296 99.2742 106.976C98.6555 106.656 97.9195 106.496 97.0662 106.496C95.4875 106.496 94.2395 107.008 93.3222 108.032C92.4262 109.056 91.9782 110.432 91.9782 112.16C91.9782 114.101 92.4582 115.584 93.4182 116.608C94.3995 117.61 95.8182 118.112 97.6742 118.112C99.8715 118.112 101.44 117.12 102.378 115.136H96.0742V110.624H107.786V116.704C107.296 117.898 106.57 119.018 105.61 120.064C104.672 121.109 103.477 121.973 102.026 122.656C100.576 123.317 98.9222 123.648 97.0662 123.648C94.8048 123.648 92.7995 123.168 91.0502 122.208C89.3222 121.226 87.9782 119.872 87.0182 118.144C86.0795 116.394 85.6102 114.4 85.6102 112.16C85.6102 109.941 86.0795 107.968 87.0182 106.24C87.9782 104.49 89.3222 103.136 91.0502 102.176C92.7782 101.194 94.7728 100.704 97.0342 100.704C99.8715 100.704 102.218 101.386 104.074 102.752C105.93 104.117 107.082 105.984 107.53 108.352H100.778ZM127.509 114.304C127.509 114.794 127.477 115.285 127.413 115.776H115.541C115.605 116.757 115.872 117.493 116.341 117.984C116.832 118.453 117.45 118.688 118.197 118.688C119.242 118.688 119.989 118.218 120.437 117.28H127.125C126.848 118.517 126.304 119.626 125.493 120.608C124.704 121.568 123.701 122.325 122.485 122.88C121.269 123.434 119.925 123.712 118.453 123.712C116.682 123.712 115.104 123.338 113.717 122.592C112.352 121.845 111.274 120.778 110.485 119.392C109.717 118.005 109.333 116.373 109.333 114.496C109.333 112.618 109.717 110.997 110.485 109.632C111.253 108.245 112.32 107.178 113.685 106.432C115.072 105.685 116.661 105.312 118.453 105.312C120.224 105.312 121.792 105.674 123.157 106.4C124.522 107.125 125.589 108.17 126.357 109.536C127.125 110.88 127.509 112.469 127.509 114.304ZM121.109 112.736C121.109 111.968 120.853 111.37 120.341 110.944C119.829 110.496 119.189 110.272 118.421 110.272C117.653 110.272 117.024 110.485 116.533 110.912C116.042 111.317 115.722 111.925 115.573 112.736H121.109ZM140.428 118.144V123.488H137.708C133.121 123.488 130.828 121.216 130.828 116.672V110.752H128.62V105.536H130.828V101.184H137.132V105.536H140.396V110.752H137.132V116.768C137.132 117.258 137.238 117.61 137.452 117.824C137.686 118.037 138.07 118.144 138.604 118.144H140.428ZM147.925 114.496C147.925 112.64 148.256 111.018 148.917 109.632C149.6 108.245 150.517 107.178 151.669 106.432C152.843 105.685 154.144 105.312 155.573 105.312C156.811 105.312 157.877 105.557 158.773 106.048C159.669 106.538 160.363 107.2 160.853 108.032V105.536H167.125V123.488H160.853V120.992C160.363 121.824 159.659 122.485 158.741 122.976C157.845 123.466 156.789 123.712 155.573 123.712C154.144 123.712 152.843 123.338 151.669 122.592C150.517 121.845 149.6 120.778 148.917 119.392C148.256 117.984 147.925 116.352 147.925 114.496ZM160.853 114.496C160.853 113.344 160.533 112.437 159.893 111.776C159.275 111.114 158.507 110.784 157.589 110.784C156.651 110.784 155.872 111.114 155.253 111.776C154.635 112.416 154.325 113.322 154.325 114.496C154.325 115.648 154.635 116.565 155.253 117.248C155.872 117.909 156.651 118.24 157.589 118.24C158.507 118.24 159.275 117.909 159.893 117.248C160.533 116.586 160.853 115.669 160.853 114.496ZM182.203 105.376C184.273 105.376 185.915 106.069 187.131 107.456C188.347 108.821 188.955 110.677 188.955 113.024V123.488H182.683V113.856C182.683 112.832 182.417 112.032 181.883 111.456C181.35 110.858 180.635 110.56 179.739 110.56C178.801 110.56 178.065 110.858 177.531 111.456C176.998 112.032 176.731 112.832 176.731 113.856V123.488H170.459V105.536H176.731V108.096C177.286 107.285 178.033 106.634 178.971 106.144C179.91 105.632 180.987 105.376 182.203 105.376ZM212.314 119.808H204.314L203.098 123.488H196.506L204.73 100.928H211.962L220.154 123.488H213.53L212.314 119.808ZM210.746 115.008L208.314 107.712L205.914 115.008H210.746ZM228.23 108.032C228.721 107.2 229.414 106.538 230.31 106.048C231.206 105.557 232.262 105.312 233.478 105.312C234.908 105.312 236.198 105.685 237.35 106.432C238.524 107.178 239.441 108.245 240.102 109.632C240.785 111.018 241.126 112.64 241.126 114.496C241.126 116.352 240.785 117.984 240.102 119.392C239.441 120.778 238.524 121.845 237.35 122.592C236.198 123.338 234.908 123.712 233.478 123.712C232.262 123.712 231.206 123.466 230.31 122.976C229.436 122.485 228.742 121.824 228.23 120.992V132.064H221.958V105.536H228.23V108.032ZM234.758 114.496C234.758 113.322 234.438 112.416 233.798 111.776C233.18 111.114 232.412 110.784 231.494 110.784C230.577 110.784 229.798 111.114 229.158 111.776C228.54 112.437 228.23 113.344 228.23 114.496C228.23 115.669 228.54 116.586 229.158 117.248C229.798 117.909 230.577 118.24 231.494 118.24C232.412 118.24 233.18 117.909 233.798 117.248C234.438 116.565 234.758 115.648 234.758 114.496ZM249.74 108.032C250.231 107.2 250.924 106.538 251.82 106.048C252.716 105.557 253.772 105.312 254.988 105.312C256.418 105.312 257.708 105.685 258.86 106.432C260.034 107.178 260.951 108.245 261.612 109.632C262.295 111.018 262.636 112.64 262.636 114.496C262.636 116.352 262.295 117.984 261.612 119.392C260.951 120.778 260.034 121.845 258.86 122.592C257.708 123.338 256.418 123.712 254.988 123.712C253.772 123.712 252.716 123.466 251.82 122.976C250.946 122.485 250.252 121.824 249.74 120.992V132.064H243.468V105.536H249.74V108.032ZM256.268 114.496C256.268 113.322 255.948 112.416 255.308 111.776C254.69 111.114 253.922 110.784 253.004 110.784C252.087 110.784 251.308 111.114 250.668 111.776C250.05 112.437 249.74 113.344 249.74 114.496C249.74 115.669 250.05 116.586 250.668 117.248C251.308 117.909 252.087 118.24 253.004 118.24C253.922 118.24 254.69 117.909 255.308 117.248C255.948 116.565 256.268 115.648 256.268 114.496ZM273.33 123.712C271.538 123.712 269.928 123.338 268.498 122.592C267.09 121.845 265.981 120.778 265.17 119.392C264.36 118.005 263.954 116.373 263.954 114.496C263.954 112.64 264.36 111.018 265.17 109.632C266.002 108.245 267.122 107.178 268.53 106.432C269.96 105.685 271.57 105.312 273.362 105.312C275.154 105.312 276.754 105.685 278.162 106.432C279.592 107.178 280.712 108.245 281.522 109.632C282.354 111.018 282.77 112.64 282.77 114.496C282.77 116.352 282.354 117.984 281.522 119.392C280.712 120.778 279.592 121.845 278.162 122.592C276.733 123.338 275.122 123.712 273.33 123.712ZM273.33 118.272C274.205 118.272 274.93 117.952 275.506 117.312C276.104 116.65 276.402 115.712 276.402 114.496C276.402 113.28 276.104 112.352 275.506 111.712C274.93 111.072 274.216 110.752 273.362 110.752C272.509 110.752 271.794 111.072 271.218 111.712C270.642 112.352 270.354 113.28 270.354 114.496C270.354 115.733 270.632 116.672 271.186 117.312C271.741 117.952 272.456 118.272 273.33 118.272ZM288.25 103.872C287.141 103.872 286.245 103.573 285.562 102.976C284.901 102.357 284.57 101.589 284.57 100.672C284.57 99.7329 284.901 98.9542 285.562 98.3355C286.245 97.7169 287.141 97.4075 288.25 97.4075C289.338 97.4075 290.213 97.7169 290.874 98.3355C291.557 98.9542 291.898 99.7329 291.898 100.672C291.898 101.589 291.557 102.357 290.874 102.976C290.213 103.573 289.338 103.872 288.25 103.872ZM291.354 105.536V123.488H285.082V105.536H291.354ZM306.43 105.376C308.499 105.376 310.142 106.069 311.358 107.456C312.574 108.821 313.182 110.677 313.182 113.024V123.488H306.91V113.856C306.91 112.832 306.643 112.032 306.11 111.456C305.576 110.858 304.862 110.56 303.966 110.56C303.027 110.56 302.291 110.858 301.758 111.456C301.224 112.032 300.958 112.832 300.958 113.856V123.488H294.686V105.536H300.958V108.096C301.512 107.285 302.259 106.634 303.198 106.144C304.136 105.632 305.214 105.376 306.43 105.376ZM326.975 118.144V123.488H324.255C319.669 123.488 317.375 121.216 317.375 116.672V110.752H315.167V105.536H317.375V101.184H323.679V105.536H326.943V110.752H323.679V116.768C323.679 117.258 323.786 117.61 323.999 117.824C324.234 118.037 324.618 118.144 325.151 118.144H326.975ZM353.068 105.376C355.329 105.376 357.1 106.058 358.38 107.424C359.681 108.789 360.332 110.656 360.332 113.024V123.488H354.06V113.856C354.06 112.896 353.793 112.149 353.26 111.616C352.727 111.082 352.001 110.816 351.084 110.816C350.167 110.816 349.441 111.082 348.908 111.616C348.375 112.149 348.108 112.896 348.108 113.856V123.488H341.836V113.856C341.836 112.896 341.569 112.149 341.036 111.616C340.524 111.082 339.809 110.816 338.892 110.816C337.953 110.816 337.217 111.082 336.684 111.616C336.151 112.149 335.884 112.896 335.884 113.856V123.488H329.612V105.536H335.884V107.904C336.439 107.136 337.153 106.528 338.028 106.08C338.924 105.61 339.948 105.376 341.1 105.376C342.423 105.376 343.596 105.664 344.62 106.24C345.665 106.816 346.487 107.626 347.084 108.672C347.724 107.69 348.567 106.901 349.612 106.304C350.657 105.685 351.809 105.376 353.068 105.376ZM380.68 114.304C380.68 114.794 380.648 115.285 380.584 115.776H368.712C368.776 116.757 369.043 117.493 369.512 117.984C370.003 118.453 370.622 118.688 371.368 118.688C372.414 118.688 373.16 118.218 373.608 117.28H380.296C380.019 118.517 379.475 119.626 378.664 120.608C377.875 121.568 376.872 122.325 375.656 122.88C374.44 123.434 373.096 123.712 371.624 123.712C369.854 123.712 368.275 123.338 366.888 122.592C365.523 121.845 364.446 120.778 363.656 119.392C362.888 118.005 362.504 116.373 362.504 114.496C362.504 112.618 362.888 110.997 363.656 109.632C364.424 108.245 365.491 107.178 366.856 106.432C368.243 105.685 369.832 105.312 371.624 105.312C373.395 105.312 374.963 105.674 376.328 106.4C377.694 107.125 378.76 108.17 379.528 109.536C380.296 110.88 380.68 112.469 380.68 114.304ZM374.28 112.736C374.28 111.968 374.024 111.37 373.512 110.944C373 110.496 372.36 110.272 371.592 110.272C370.824 110.272 370.195 110.485 369.704 110.912C369.214 111.317 368.894 111.925 368.744 112.736H374.28ZM394.751 105.376C396.82 105.376 398.463 106.069 399.679 107.456C400.895 108.821 401.503 110.677 401.503 113.024V123.488H395.231V113.856C395.231 112.832 394.964 112.032 394.431 111.456C393.898 110.858 393.183 110.56 392.287 110.56C391.348 110.56 390.612 110.858 390.079 111.456C389.546 112.032 389.279 112.832 389.279 113.856V123.488H383.007V105.536H389.279V108.096C389.834 107.285 390.58 106.634 391.519 106.144C392.458 105.632 393.535 105.376 394.751 105.376ZM415.296 118.144V123.488H412.576C407.99 123.488 405.696 121.216 405.696 116.672V110.752H403.488V105.536H405.696V101.184H412V105.536H415.264V110.752H412V116.768C412 117.258 412.107 117.61 412.32 117.824C412.555 118.037 412.939 118.144 413.472 118.144H415.296Z" fill="black"/>
</svg>
