<svg width="271" height="216" viewBox="0 0 271 216" fill="none" xmlns="http://www.w3.org/2000/svg">
<g filter="url(#filter0_d_651_282)">
<rect x="8" y="4" width="255" height="200" rx="8" fill="#413F3F"/>
</g>
<path d="M102.12 121H93.912L80.184 100.216V121H71.976V87.304H80.184L93.912 108.184V87.304H102.12V121ZM123.766 121.336C120.598 121.336 117.686 120.6 115.03 119.128C112.406 117.656 110.31 115.608 108.742 112.984C107.206 110.328 106.438 107.352 106.438 104.056C106.438 100.76 107.206 97.8 108.742 95.176C110.31 92.552 112.406 90.504 115.03 89.032C117.686 87.56 120.598 86.824 123.766 86.824C126.934 86.824 129.83 87.56 132.454 89.032C135.11 90.504 137.19 92.552 138.694 95.176C140.23 97.8 140.998 100.76 140.998 104.056C140.998 107.352 140.23 110.328 138.694 112.984C137.158 115.608 135.078 117.656 132.454 119.128C129.83 120.6 126.934 121.336 123.766 121.336ZM123.766 113.848C126.454 113.848 128.598 112.952 130.198 111.16C131.83 109.368 132.646 107 132.646 104.056C132.646 101.08 131.83 98.712 130.198 96.952C128.598 95.16 126.454 94.264 123.766 94.264C121.046 94.264 118.87 95.144 117.238 96.904C115.638 98.664 114.838 101.048 114.838 104.056C114.838 107.032 115.638 109.416 117.238 111.208C118.87 112.968 121.046 113.848 123.766 113.848ZM157.948 87.304C161.5 87.304 164.604 88.008 167.26 89.416C169.916 90.824 171.964 92.808 173.404 95.368C174.876 97.896 175.612 100.824 175.612 104.152C175.612 107.448 174.876 110.376 173.404 112.936C171.964 115.496 169.9 117.48 167.212 118.888C164.556 120.296 161.468 121 157.948 121H145.324V87.304H157.948ZM157.42 113.896C160.524 113.896 162.94 113.048 164.668 111.352C166.396 109.656 167.26 107.256 167.26 104.152C167.26 101.048 166.396 98.632 164.668 96.904C162.94 95.176 160.524 94.312 157.42 94.312H153.532V113.896H157.42ZM188.167 93.88V100.696H199.159V107.032H188.167V114.424H200.599V121H179.959V87.304H200.599V93.88H188.167Z" fill="white"/>
<defs>
<filter id="filter0_d_651_282" x="0" y="0" width="271" height="216" filterUnits="userSpaceOnUse" color-interpolation-filters="sRGB">
<feFlood flood-opacity="0" result="BackgroundImageFix"/>
<feColorMatrix in="SourceAlpha" type="matrix" values="0 0 0 0 0 0 0 0 0 0 0 0 0 0 0 0 0 0 127 0" result="hardAlpha"/>
<feOffset dy="4"/>
<feGaussianBlur stdDeviation="4"/>
<feComposite in2="hardAlpha" operator="out"/>
<feColorMatrix type="matrix" values="0 0 0 0 0 0 0 0 0 0 0 0 0 0 0 0 0 0 0.36 0"/>
<feBlend mode="normal" in2="BackgroundImageFix" result="effect1_dropShadow_651_282"/>
<feBlend mode="normal" in="SourceGraphic" in2="effect1_dropShadow_651_282" result="shape"/>
</filter>
</defs>
</svg>
