<svg width="271" height="216" viewBox="0 0 271 216" fill="none" xmlns="http://www.w3.org/2000/svg">
<g filter="url(#filter0_d_651_283)">
<rect x="8" y="4" width="255" height="200" rx="8" fill="#413F3F"/>
</g>
<path d="M116.656 98.152C116.656 100.104 116.208 101.896 115.312 103.528C114.416 105.128 113.04 106.424 111.184 107.416C109.328 108.408 107.024 108.904 104.272 108.904H99.184V121H90.976V87.304H104.272C106.96 87.304 109.232 87.768 111.088 88.696C112.944 89.624 114.336 90.904 115.264 92.536C116.192 94.168 116.656 96.04 116.656 98.152ZM103.648 102.376C105.216 102.376 106.384 102.008 107.152 101.272C107.92 100.536 108.304 99.496 108.304 98.152C108.304 96.808 107.92 95.768 107.152 95.032C106.384 94.296 105.216 93.928 103.648 93.928H99.184V102.376H103.648ZM149.873 87.304V121H141.665V107.128H128.897V121H120.689V87.304H128.897V100.504H141.665V87.304H149.873ZM181.238 98.152C181.238 100.104 180.79 101.896 179.894 103.528C178.998 105.128 177.622 106.424 175.766 107.416C173.91 108.408 171.606 108.904 168.854 108.904H163.766V121H155.558V87.304H168.854C171.542 87.304 173.814 87.768 175.67 88.696C177.526 89.624 178.918 90.904 179.846 92.536C180.774 94.168 181.238 96.04 181.238 98.152ZM168.23 102.376C169.798 102.376 170.966 102.008 171.734 101.272C172.502 100.536 172.886 99.496 172.886 98.152C172.886 96.808 172.502 95.768 171.734 95.032C170.966 94.296 169.798 93.928 168.23 93.928H163.766V102.376H168.23Z" fill="white"/>
<defs>
<filter id="filter0_d_651_283" x="0" y="0" width="271" height="216" filterUnits="userSpaceOnUse" color-interpolation-filters="sRGB">
<feFlood flood-opacity="0" result="BackgroundImageFix"/>
<feColorMatrix in="SourceAlpha" type="matrix" values="0 0 0 0 0 0 0 0 0 0 0 0 0 0 0 0 0 0 127 0" result="hardAlpha"/>
<feOffset dy="4"/>
<feGaussianBlur stdDeviation="4"/>
<feComposite in2="hardAlpha" operator="out"/>
<feColorMatrix type="matrix" values="0 0 0 0 0 0 0 0 0 0 0 0 0 0 0 0 0 0 0.36 0"/>
<feBlend mode="normal" in2="BackgroundImageFix" result="effect1_dropShadow_651_283"/>
<feBlend mode="normal" in="SourceGraphic" in2="effect1_dropShadow_651_283" result="shape"/>
</filter>
</defs>
</svg>
