<svg width="212" height="39" viewBox="0 0 212 39" fill="none" xmlns="http://www.w3.org/2000/svg">
<path d="M14.8161 4.4C17.7921 4.4 20.3681 4.896 22.5441 5.888C24.7521 6.88 26.4481 8.288 27.6321 10.112C28.8161 11.936 29.4081 14.096 29.4081 16.592C29.4081 19.056 28.8161 21.216 27.6321 23.072C26.4481 24.896 24.7521 26.304 22.5441 27.296C20.3681 28.256 17.7921 28.736 14.8161 28.736H8.04812V38H0.272124V4.4H14.8161ZM14.3841 22.4C16.7201 22.4 18.4961 21.904 19.7121 20.912C20.9281 19.888 21.5361 18.448 21.5361 16.592C21.5361 14.704 20.9281 13.264 19.7121 12.272C18.4961 11.248 16.7201 10.736 14.3841 10.736H8.04812V22.4H14.3841ZM46.4327 38.384C43.7127 38.384 41.2647 37.824 39.0887 36.704C36.9447 35.552 35.2647 33.968 34.0487 31.952C32.8327 29.936 32.2247 27.648 32.2247 25.088C32.2247 22.528 32.8327 20.24 34.0487 18.224C35.2647 16.208 36.9447 14.64 39.0887 13.52C41.2647 12.368 43.7127 11.792 46.4327 11.792C49.1527 11.792 51.5847 12.368 53.7287 13.52C55.8727 14.64 57.5527 16.208 58.7687 18.224C59.9847 20.24 60.5927 22.528 60.5927 25.088C60.5927 27.648 59.9847 29.936 58.7687 31.952C57.5527 33.968 55.8727 35.552 53.7287 36.704C51.5847 37.824 49.1527 38.384 46.4327 38.384ZM46.4327 32.24C48.3527 32.24 49.9207 31.6 51.1367 30.32C52.3847 29.008 53.0087 27.264 53.0087 25.088C53.0087 22.912 52.3847 21.184 51.1367 19.904C49.9207 18.592 48.3527 17.936 46.4327 17.936C44.5127 17.936 42.9287 18.592 41.6807 19.904C40.4327 21.184 39.8087 22.912 39.8087 25.088C39.8087 27.264 40.4327 29.008 41.6807 30.32C42.9287 31.6 44.5127 32.24 46.4327 32.24ZM72.5099 15.584C73.4059 14.336 74.6059 13.392 76.1099 12.752C77.6459 12.112 79.4059 11.792 81.3899 11.792V18.704C80.5579 18.64 79.9979 18.608 79.7099 18.608C77.5659 18.608 75.8859 19.216 74.6699 20.432C73.4539 21.616 72.8459 23.408 72.8459 25.808V38H65.3579V12.176H72.5099V15.584ZM103.149 36.752C102.413 37.296 101.501 37.712 100.413 38C99.3569 38.256 98.2369 38.384 97.0529 38.384C93.9809 38.384 91.5969 37.6 89.9009 36.032C88.2369 34.464 87.4049 32.16 87.4049 29.12V18.512H83.4209V12.752H87.4049V6.464H94.8929V12.752H101.325V18.512H94.8929V29.024C94.8929 30.112 95.1649 30.96 95.7089 31.568C96.2849 32.144 97.0849 32.432 98.1089 32.432C99.2929 32.432 100.301 32.112 101.133 31.472L103.149 36.752ZM115.32 12.752H121.944V18.512H115.512V38H108.024V18.512H104.04V12.752H108.024V11.6C108.024 8.656 108.888 6.32 110.616 4.592C112.376 2.864 114.84 2 118.008 2C119.128 2 120.184 2.128 121.176 2.384C122.2 2.608 123.048 2.944 123.72 3.392L121.752 8.816C120.888 8.208 119.88 7.904 118.728 7.904C116.456 7.904 115.32 9.152 115.32 11.648V12.752ZM137.395 38.384C134.675 38.384 132.227 37.824 130.051 36.704C127.907 35.552 126.227 33.968 125.011 31.952C123.795 29.936 123.187 27.648 123.187 25.088C123.187 22.528 123.795 20.24 125.011 18.224C126.227 16.208 127.907 14.64 130.051 13.52C132.227 12.368 134.675 11.792 137.395 11.792C140.115 11.792 142.547 12.368 144.691 13.52C146.835 14.64 148.515 16.208 149.731 18.224C150.947 20.24 151.555 22.528 151.555 25.088C151.555 27.648 150.947 29.936 149.731 31.952C148.515 33.968 146.835 35.552 144.691 36.704C142.547 37.824 140.115 38.384 137.395 38.384ZM137.395 32.24C139.315 32.24 140.883 31.6 142.099 30.32C143.347 29.008 143.971 27.264 143.971 25.088C143.971 22.912 143.347 21.184 142.099 19.904C140.883 18.592 139.315 17.936 137.395 17.936C135.475 17.936 133.891 18.592 132.643 19.904C131.395 21.184 130.771 22.912 130.771 25.088C130.771 27.264 131.395 29.008 132.643 30.32C133.891 31.6 135.475 32.24 137.395 32.24ZM156.32 2.384H163.808V38H156.32V2.384ZM170.517 12.176H178.005V38H170.517V12.176ZM174.261 8.576C172.885 8.576 171.765 8.176 170.901 7.376C170.037 6.576 169.605 5.584 169.605 4.4C169.605 3.216 170.037 2.224 170.901 1.424C171.765 0.623998 172.885 0.223997 174.261 0.223997C175.637 0.223997 176.757 0.607998 177.621 1.376C178.485 2.144 178.917 3.104 178.917 4.256C178.917 5.504 178.485 6.544 177.621 7.376C176.757 8.176 175.637 8.576 174.261 8.576ZM197.003 38.384C194.283 38.384 191.835 37.824 189.659 36.704C187.515 35.552 185.835 33.968 184.619 31.952C183.403 29.936 182.795 27.648 182.795 25.088C182.795 22.528 183.403 20.24 184.619 18.224C185.835 16.208 187.515 14.64 189.659 13.52C191.835 12.368 194.283 11.792 197.003 11.792C199.723 11.792 202.155 12.368 204.299 13.52C206.443 14.64 208.123 16.208 209.339 18.224C210.555 20.24 211.163 22.528 211.163 25.088C211.163 27.648 210.555 29.936 209.339 31.952C208.123 33.968 206.443 35.552 204.299 36.704C202.155 37.824 199.723 38.384 197.003 38.384ZM197.003 32.24C198.923 32.24 200.491 31.6 201.707 30.32C202.955 29.008 203.579 27.264 203.579 25.088C203.579 22.912 202.955 21.184 201.707 19.904C200.491 18.592 198.923 17.936 197.003 17.936C195.083 17.936 193.499 18.592 192.251 19.904C191.003 21.184 190.379 22.912 190.379 25.088C190.379 27.264 191.003 29.008 192.251 30.32C193.499 31.6 195.083 32.24 197.003 32.24Z" fill="black"/>
</svg>
