<svg width="297" height="79" viewBox="0 0 297 79" fill="none" xmlns="http://www.w3.org/2000/svg">
<path d="M40.3979 25.16C40.3979 28.232 39.6779 31.04 38.2379 33.584C36.8459 36.08 34.7099 38.096 31.8299 39.632C28.9979 41.12 25.5179 41.864 21.3899 41.864H14.4059V59H0.293871V8.24H21.3899C25.4699 8.24 28.9259 8.96 31.7579 10.4C34.6379 11.84 36.7979 13.832 38.2379 16.376C39.6779 18.92 40.3979 21.848 40.3979 25.16ZM20.0219 30.632C24.0059 30.632 25.9979 28.808 25.9979 25.16C25.9979 21.464 24.0059 19.616 20.0219 19.616H14.4059V30.632H20.0219ZM59.9393 25.736C61.5233 23.432 63.4433 21.608 65.6993 20.264C67.9553 18.92 70.3793 18.248 72.9713 18.248V33.296H69.0113C65.9393 33.296 63.6593 33.896 62.1713 35.096C60.6833 36.296 59.9393 38.384 59.9393 41.36V59H45.8273V18.608H59.9393V25.736ZM96.5824 59.504C92.5504 59.504 88.9264 58.664 85.7104 56.984C82.5424 55.304 80.0464 52.904 78.2224 49.784C76.3984 46.664 75.4864 42.992 75.4864 38.768C75.4864 34.592 76.3984 30.944 78.2224 27.824C80.0944 24.704 82.6144 22.304 85.7824 20.624C88.9984 18.944 92.6224 18.104 96.6544 18.104C100.686 18.104 104.286 18.944 107.454 20.624C110.67 22.304 113.19 24.704 115.014 27.824C116.886 30.944 117.822 34.592 117.822 38.768C117.822 42.944 116.886 46.616 115.014 49.784C113.19 52.904 110.67 55.304 107.454 56.984C104.238 58.664 100.614 59.504 96.5824 59.504ZM96.5824 47.264C98.5504 47.264 100.182 46.544 101.478 45.104C102.822 43.616 103.494 41.504 103.494 38.768C103.494 36.032 102.822 33.944 101.478 32.504C100.182 31.064 98.5744 30.344 96.6544 30.344C94.7344 30.344 93.1264 31.064 91.8304 32.504C90.5344 33.944 89.8864 36.032 89.8864 38.768C89.8864 41.552 90.5104 43.664 91.7584 45.104C93.0064 46.544 94.6144 47.264 96.5824 47.264ZM130.38 14.864C127.884 14.864 125.868 14.192 124.332 12.848C122.844 11.456 122.1 9.728 122.1 7.664C122.1 5.552 122.844 3.8 124.332 2.408C125.868 1.016 127.884 0.319996 130.38 0.319996C132.828 0.319996 134.796 1.016 136.284 2.408C137.82 3.8 138.588 5.552 138.588 7.664C138.588 9.728 137.82 11.456 136.284 12.848C134.796 14.192 132.828 14.864 130.38 14.864ZM137.436 62.96C137.436 73.184 132.3 78.296 122.028 78.296H116.916V66.272H119.94C121.14 66.272 122.004 66.032 122.532 65.552C123.06 65.072 123.324 64.28 123.324 63.176V18.608H137.436V62.96ZM183.754 38.336C183.754 39.44 183.682 40.544 183.538 41.648H156.826C156.97 43.856 157.57 45.512 158.626 46.616C159.73 47.672 161.122 48.2 162.802 48.2C165.154 48.2 166.834 47.144 167.842 45.032H182.89C182.266 47.816 181.042 50.312 179.218 52.52C177.442 54.68 175.186 56.384 172.45 57.632C169.714 58.88 166.69 59.504 163.378 59.504C159.394 59.504 155.842 58.664 152.722 56.984C149.65 55.304 147.226 52.904 145.45 49.784C143.722 46.664 142.858 42.992 142.858 38.768C142.858 34.544 143.722 30.896 145.45 27.824C147.178 24.704 149.578 22.304 152.65 20.624C155.77 18.944 159.346 18.104 163.378 18.104C167.362 18.104 170.89 18.92 173.962 20.552C177.034 22.184 179.434 24.536 181.162 27.608C182.89 30.632 183.754 34.208 183.754 38.336ZM169.354 34.808C169.354 33.08 168.778 31.736 167.626 30.776C166.474 29.768 165.034 29.264 163.306 29.264C161.578 29.264 160.162 29.744 159.058 30.704C157.954 31.616 157.234 32.984 156.898 34.808H169.354ZM186.985 38.768C186.985 34.592 187.849 30.944 189.577 27.824C191.305 24.704 193.705 22.304 196.777 20.624C199.897 18.944 203.449 18.104 207.433 18.104C212.569 18.104 216.889 19.52 220.393 22.352C223.897 25.136 226.153 29.048 227.161 34.088H212.185C211.321 31.448 209.641 30.128 207.145 30.128C205.369 30.128 203.953 30.872 202.897 32.36C201.889 33.8 201.385 35.936 201.385 38.768C201.385 41.6 201.889 43.76 202.897 45.248C203.953 46.736 205.369 47.48 207.145 47.48C209.689 47.48 211.369 46.16 212.185 43.52H227.161C226.153 48.512 223.897 52.424 220.393 55.256C216.889 58.088 212.569 59.504 207.433 59.504C203.449 59.504 199.897 58.664 196.777 56.984C193.705 55.304 191.305 52.904 189.577 49.784C187.849 46.664 186.985 42.992 186.985 38.768ZM256.616 46.976V59H250.496C240.176 59 235.016 53.888 235.016 43.664V30.344H230.048V18.608H235.016V8.816H249.2V18.608H256.544V30.344H249.2V43.88C249.2 44.984 249.44 45.776 249.92 46.256C250.448 46.736 251.312 46.976 252.512 46.976H256.616ZM280.056 59.504C276.408 59.504 273.144 58.904 270.264 57.704C267.432 56.456 265.176 54.776 263.496 52.664C261.864 50.504 260.952 48.08 260.76 45.392H274.44C274.632 46.688 275.232 47.696 276.24 48.416C277.248 49.136 278.496 49.496 279.984 49.496C281.136 49.496 282.048 49.256 282.72 48.776C283.392 48.296 283.728 47.672 283.728 46.904C283.728 45.896 283.176 45.152 282.072 44.672C280.968 44.192 279.144 43.664 276.6 43.088C273.72 42.512 271.32 41.864 269.4 41.144C267.48 40.424 265.8 39.248 264.36 37.616C262.968 35.984 262.272 33.776 262.272 30.992C262.272 28.592 262.92 26.432 264.216 24.512C265.512 22.544 267.408 20.984 269.904 19.832C272.448 18.68 275.496 18.104 279.048 18.104C284.328 18.104 288.48 19.4 291.504 21.992C294.528 24.584 296.28 27.992 296.76 32.216H284.016C283.776 30.92 283.2 29.936 282.288 29.264C281.424 28.544 280.248 28.184 278.76 28.184C277.608 28.184 276.72 28.4 276.096 28.832C275.52 29.264 275.232 29.864 275.232 30.632C275.232 31.592 275.784 32.336 276.888 32.864C277.992 33.344 279.768 33.848 282.216 34.376C285.144 35 287.568 35.696 289.488 36.464C291.456 37.232 293.16 38.48 294.6 40.208C296.088 41.888 296.832 44.192 296.832 47.12C296.832 49.472 296.136 51.584 294.744 53.456C293.4 55.328 291.456 56.816 288.912 57.92C286.416 58.976 283.464 59.504 280.056 59.504Z" fill="#0D0C0C" fill-opacity="0.8"/>
</svg>
