<svg width="271" height="216" viewBox="0 0 271 216" fill="none" xmlns="http://www.w3.org/2000/svg">
<g filter="url(#filter0_d_651_284)">
<rect x="8" y="4" width="255" height="200" rx="8" fill="#413F3F"/>
</g>
<path d="M69.865 98.58C69.865 100.41 69.445 102.09 68.605 103.62C67.765 105.12 66.475 106.335 64.735 107.265C62.995 108.195 60.835 108.66 58.255 108.66H53.485V120H45.79V88.41H58.255C60.775 88.41 62.905 88.845 64.645 89.715C66.385 90.585 67.69 91.785 68.56 93.315C69.43 94.845 69.865 96.6 69.865 98.58ZM57.67 102.54C59.14 102.54 60.235 102.195 60.955 101.505C61.675 100.815 62.035 99.84 62.035 98.58C62.035 97.32 61.675 96.345 60.955 95.655C60.235 94.965 59.14 94.62 57.67 94.62H53.485V102.54H57.67ZM100.721 88.41L89.7861 109.56V120H82.0911V109.56L71.1561 88.41H79.8861L86.0061 101.64L92.0811 88.41H100.721ZM126.306 88.41V94.575H117.936V120H110.241V94.575H101.871V88.41H126.306ZM157.288 88.41V120H149.593V106.995H137.623V120H129.928V88.41H137.623V100.785H149.593V88.41H157.288ZM177.543 120.315C174.573 120.315 171.843 119.625 169.353 118.245C166.893 116.865 164.928 114.945 163.458 112.485C162.018 109.995 161.298 107.205 161.298 104.115C161.298 101.025 162.018 98.25 163.458 95.79C164.928 93.33 166.893 91.41 169.353 90.03C171.843 88.65 174.573 87.96 177.543 87.96C180.513 87.96 183.228 88.65 185.688 90.03C188.178 91.41 190.128 93.33 191.538 95.79C192.978 98.25 193.698 101.025 193.698 104.115C193.698 107.205 192.978 109.995 191.538 112.485C190.098 114.945 188.148 116.865 185.688 118.245C183.228 119.625 180.513 120.315 177.543 120.315ZM177.543 113.295C180.063 113.295 182.073 112.455 183.573 110.775C185.103 109.095 185.868 106.875 185.868 104.115C185.868 101.325 185.103 99.105 183.573 97.455C182.073 95.775 180.063 94.935 177.543 94.935C174.993 94.935 172.953 95.76 171.423 97.41C169.923 99.06 169.173 101.295 169.173 104.115C169.173 106.905 169.923 109.14 171.423 110.82C172.953 112.47 174.993 113.295 177.543 113.295ZM225.999 120H218.304L205.434 100.515V120H197.739V88.41H205.434L218.304 107.985V88.41H225.999V120Z" fill="white"/>
<defs>
<filter id="filter0_d_651_284" x="0" y="0" width="271" height="216" filterUnits="userSpaceOnUse" color-interpolation-filters="sRGB">
<feFlood flood-opacity="0" result="BackgroundImageFix"/>
<feColorMatrix in="SourceAlpha" type="matrix" values="0 0 0 0 0 0 0 0 0 0 0 0 0 0 0 0 0 0 127 0" result="hardAlpha"/>
<feOffset dy="4"/>
<feGaussianBlur stdDeviation="4"/>
<feComposite in2="hardAlpha" operator="out"/>
<feColorMatrix type="matrix" values="0 0 0 0 0 0 0 0 0 0 0 0 0 0 0 0 0 0 0.36 0"/>
<feBlend mode="normal" in2="BackgroundImageFix" result="effect1_dropShadow_651_284"/>
<feBlend mode="normal" in="SourceGraphic" in2="effect1_dropShadow_651_284" result="shape"/>
</filter>
</defs>
</svg>
