<svg width="271" height="216" viewBox="0 0 271 216" fill="none" xmlns="http://www.w3.org/2000/svg">
<g filter="url(#filter0_d_651_281)">
<rect x="8" y="4" width="255" height="200" rx="8" fill="#413F3F"/>
</g>
<path d="M77.16 121L70.152 108.28H68.184V121H59.976V87.304H73.752C76.408 87.304 78.664 87.768 80.52 88.696C82.408 89.624 83.816 90.904 84.744 92.536C85.672 94.136 86.136 95.928 86.136 97.912C86.136 100.152 85.496 102.152 84.216 103.912C82.968 105.672 81.112 106.92 78.648 107.656L86.424 121H77.16ZM68.184 102.472H73.272C74.776 102.472 75.896 102.104 76.632 101.368C77.4 100.632 77.784 99.592 77.784 98.248C77.784 96.968 77.4 95.96 76.632 95.224C75.896 94.488 74.776 94.12 73.272 94.12H68.184V102.472ZM99.2565 93.88V100.696H110.249V107.032H99.2565V114.424H111.689V121H91.0485V87.304H111.689V93.88H99.2565ZM137.753 115.048H125.177L123.161 121H114.569L126.761 87.304H136.265L148.457 121H139.769L137.753 115.048ZM135.641 108.712L131.465 96.376L127.337 108.712H135.641ZM150.536 104.104C150.536 100.776 151.256 97.816 152.696 95.224C154.136 92.6 156.136 90.568 158.696 89.128C161.288 87.656 164.216 86.92 167.48 86.92C171.48 86.92 174.904 87.976 177.752 90.088C180.6 92.2 182.504 95.08 183.464 98.728H174.44C173.768 97.32 172.808 96.248 171.56 95.512C170.344 94.776 168.952 94.408 167.384 94.408C164.856 94.408 162.808 95.288 161.24 97.048C159.672 98.808 158.888 101.16 158.888 104.104C158.888 107.048 159.672 109.4 161.24 111.16C162.808 112.92 164.856 113.8 167.384 113.8C168.952 113.8 170.344 113.432 171.56 112.696C172.808 111.96 173.768 110.888 174.44 109.48H183.464C182.504 113.128 180.6 116.008 177.752 118.12C174.904 120.2 171.48 121.24 167.48 121.24C164.216 121.24 161.288 120.52 158.696 119.08C156.136 117.608 154.136 115.576 152.696 112.984C151.256 110.392 150.536 107.432 150.536 104.104ZM212.49 87.304V93.88H203.562V121H195.354V93.88H186.426V87.304H212.49Z" fill="white"/>
<defs>
<filter id="filter0_d_651_281" x="0" y="0" width="271" height="216" filterUnits="userSpaceOnUse" color-interpolation-filters="sRGB">
<feFlood flood-opacity="0" result="BackgroundImageFix"/>
<feColorMatrix in="SourceAlpha" type="matrix" values="0 0 0 0 0 0 0 0 0 0 0 0 0 0 0 0 0 0 127 0" result="hardAlpha"/>
<feOffset dy="4"/>
<feGaussianBlur stdDeviation="4"/>
<feComposite in2="hardAlpha" operator="out"/>
<feColorMatrix type="matrix" values="0 0 0 0 0 0 0 0 0 0 0 0 0 0 0 0 0 0 0.36 0"/>
<feBlend mode="normal" in2="BackgroundImageFix" result="effect1_dropShadow_651_281"/>
<feBlend mode="normal" in="SourceGraphic" in2="effect1_dropShadow_651_281" result="shape"/>
</filter>
</defs>
</svg>
