<svg width="271" height="216" viewBox="0 0 271 216" fill="none" xmlns="http://www.w3.org/2000/svg">
<g filter="url(#filter0_d_654_282)">
<rect x="8" y="4" width="255" height="200" rx="8" fill="#413F3F"/>
</g>
<path d="M77.16 98L70.152 85.28H68.184V98H59.976V64.304H73.752C76.408 64.304 78.664 64.768 80.52 65.696C82.408 66.624 83.816 67.904 84.744 69.536C85.672 71.136 86.136 72.928 86.136 74.912C86.136 77.152 85.496 79.152 84.216 80.912C82.968 82.672 81.112 83.92 78.648 84.656L86.424 98H77.16ZM68.184 79.472H73.272C74.776 79.472 75.896 79.104 76.632 78.368C77.4 77.632 77.784 76.592 77.784 75.248C77.784 73.968 77.4 72.96 76.632 72.224C75.896 71.488 74.776 71.12 73.272 71.12H68.184V79.472ZM99.2565 70.88V77.696H110.249V84.032H99.2565V91.424H111.689V98H91.0485V64.304H111.689V70.88H99.2565ZM137.753 92.048H125.177L123.161 98H114.569L126.761 64.304H136.265L148.457 98H139.769L137.753 92.048ZM135.641 85.712L131.465 73.376L127.337 85.712H135.641ZM150.536 81.104C150.536 77.776 151.256 74.816 152.696 72.224C154.136 69.6 156.136 67.568 158.696 66.128C161.288 64.656 164.216 63.92 167.48 63.92C171.48 63.92 174.904 64.976 177.752 67.088C180.6 69.2 182.504 72.08 183.464 75.728H174.44C173.768 74.32 172.808 73.248 171.56 72.512C170.344 71.776 168.952 71.408 167.384 71.408C164.856 71.408 162.808 72.288 161.24 74.048C159.672 75.808 158.888 78.16 158.888 81.104C158.888 84.048 159.672 86.4 161.24 88.16C162.808 89.92 164.856 90.8 167.384 90.8C168.952 90.8 170.344 90.432 171.56 89.696C172.808 88.96 173.768 87.888 174.44 86.48H183.464C182.504 90.128 180.6 93.008 177.752 95.12C174.904 97.2 171.48 98.24 167.48 98.24C164.216 98.24 161.288 97.52 158.696 96.08C156.136 94.608 154.136 92.576 152.696 89.984C151.256 87.392 150.536 84.432 150.536 81.104ZM212.49 64.304V70.88H203.562V98H195.354V70.88H186.426V64.304H212.49Z" fill="white"/>
<path d="M46.068 116.132V132.384C46.068 134.9 45.354 136.838 43.926 138.198C42.5207 139.558 40.6167 140.238 38.214 140.238C35.698 140.238 33.6807 139.524 32.162 138.096C30.6433 136.668 29.884 134.639 29.884 132.01H35.664C35.664 133.007 35.868 133.767 36.276 134.288C36.684 134.787 37.2733 135.036 38.044 135.036C38.7467 135.036 39.2907 134.809 39.676 134.356C40.0613 133.903 40.254 133.245 40.254 132.384V116.132H46.068ZM65.3823 135.784H56.4743L55.0463 140H48.9603L57.5963 116.132H64.3283L72.9643 140H66.8103L65.3823 135.784ZM63.8863 131.296L60.9283 122.558L58.0043 131.296H63.8863ZM97.7586 116.132L89.2926 140H82.0166L73.5506 116.132H79.7386L85.6546 134.152L91.6046 116.132H97.7586ZM114.807 135.784H105.899L104.471 140H98.3845L107.021 116.132H113.753L122.389 140H116.235L114.807 135.784ZM113.311 131.296L110.353 122.558L107.429 131.296H113.311ZM133.413 140.238C131.668 140.238 130.104 139.955 128.721 139.388C127.338 138.821 126.228 137.983 125.389 136.872C124.573 135.761 124.142 134.424 124.097 132.86H130.285C130.376 133.744 130.682 134.424 131.203 134.9C131.724 135.353 132.404 135.58 133.243 135.58C134.104 135.58 134.784 135.387 135.283 135.002C135.782 134.594 136.031 134.039 136.031 133.336C136.031 132.747 135.827 132.259 135.419 131.874C135.034 131.489 134.546 131.171 133.957 130.922C133.39 130.673 132.574 130.389 131.509 130.072C129.968 129.596 128.71 129.12 127.735 128.644C126.76 128.168 125.922 127.465 125.219 126.536C124.516 125.607 124.165 124.394 124.165 122.898C124.165 120.677 124.97 118.943 126.579 117.696C128.188 116.427 130.285 115.792 132.869 115.792C135.498 115.792 137.618 116.427 139.227 117.696C140.836 118.943 141.698 120.688 141.811 122.932H135.521C135.476 122.161 135.192 121.561 134.671 121.13C134.15 120.677 133.481 120.45 132.665 120.45C131.962 120.45 131.396 120.643 130.965 121.028C130.534 121.391 130.319 121.923 130.319 122.626C130.319 123.397 130.682 123.997 131.407 124.428C132.132 124.859 133.266 125.323 134.807 125.822C136.348 126.343 137.595 126.842 138.547 127.318C139.522 127.794 140.36 128.485 141.063 129.392C141.766 130.299 142.117 131.466 142.117 132.894C142.117 134.254 141.766 135.489 141.063 136.6C140.383 137.711 139.386 138.595 138.071 139.252C136.756 139.909 135.204 140.238 133.413 140.238ZM144.469 128.032C144.469 125.675 144.979 123.578 145.999 121.742C147.019 119.883 148.436 118.444 150.249 117.424C152.085 116.381 154.159 115.86 156.471 115.86C159.304 115.86 161.73 116.608 163.747 118.104C165.764 119.6 167.113 121.64 167.793 124.224H161.401C160.925 123.227 160.245 122.467 159.361 121.946C158.5 121.425 157.514 121.164 156.403 121.164C154.612 121.164 153.162 121.787 152.051 123.034C150.94 124.281 150.385 125.947 150.385 128.032C150.385 130.117 150.94 131.783 152.051 133.03C153.162 134.277 154.612 134.9 156.403 134.9C157.514 134.9 158.5 134.639 159.361 134.118C160.245 133.597 160.925 132.837 161.401 131.84H167.793C167.113 134.424 165.764 136.464 163.747 137.96C161.73 139.433 159.304 140.17 156.471 140.17C154.159 140.17 152.085 139.66 150.249 138.64C148.436 137.597 147.019 136.158 145.999 134.322C144.979 132.486 144.469 130.389 144.469 128.032ZM183.285 140L178.321 130.99H176.927V140H171.113V116.132H180.871C182.753 116.132 184.351 116.461 185.665 117.118C187.003 117.775 188 118.682 188.657 119.838C189.315 120.971 189.643 122.241 189.643 123.646C189.643 125.233 189.19 126.649 188.283 127.896C187.399 129.143 186.085 130.027 184.339 130.548L189.847 140H183.285ZM176.927 126.876H180.531C181.597 126.876 182.39 126.615 182.911 126.094C183.455 125.573 183.727 124.836 183.727 123.884C183.727 122.977 183.455 122.263 182.911 121.742C182.39 121.221 181.597 120.96 180.531 120.96H176.927V126.876ZM198.867 116.132V140H193.053V116.132H198.867ZM221.03 123.816C221.03 125.199 220.713 126.468 220.078 127.624C219.444 128.757 218.469 129.675 217.154 130.378C215.84 131.081 214.208 131.432 212.258 131.432H208.654V140H202.84V116.132H212.258C214.162 116.132 215.772 116.461 217.086 117.118C218.401 117.775 219.387 118.682 220.044 119.838C220.702 120.994 221.03 122.32 221.03 123.816ZM211.816 126.808C212.927 126.808 213.754 126.547 214.298 126.026C214.842 125.505 215.114 124.768 215.114 123.816C215.114 122.864 214.842 122.127 214.298 121.606C213.754 121.085 212.927 120.824 211.816 120.824H208.654V126.808H211.816ZM240.987 116.132V120.79H234.663V140H228.849V120.79H222.525V116.132H240.987Z" fill="white"/>
<defs>
<filter id="filter0_d_654_282" x="0" y="0" width="271" height="216" filterUnits="userSpaceOnUse" color-interpolation-filters="sRGB">
<feFlood flood-opacity="0" result="BackgroundImageFix"/>
<feColorMatrix in="SourceAlpha" type="matrix" values="0 0 0 0 0 0 0 0 0 0 0 0 0 0 0 0 0 0 127 0" result="hardAlpha"/>
<feOffset dy="4"/>
<feGaussianBlur stdDeviation="4"/>
<feComposite in2="hardAlpha" operator="out"/>
<feColorMatrix type="matrix" values="0 0 0 0 0 0 0 0 0 0 0 0 0 0 0 0 0 0 0.36 0"/>
<feBlend mode="normal" in2="BackgroundImageFix" result="effect1_dropShadow_654_282"/>
<feBlend mode="normal" in="SourceGraphic" in2="effect1_dropShadow_654_282" result="shape"/>
</filter>
</defs>
</svg>
