<svg width="271" height="216" viewBox="0 0 271 216" fill="none" xmlns="http://www.w3.org/2000/svg">
<g filter="url(#filter0_d_651_280)">
<rect x="8" y="4" width="255" height="200" rx="8" fill="#110F0F" fill-opacity="0.79" shape-rendering="crispEdges"/>
</g>
<path d="M78.04 87.304V107.464C78.04 109.48 78.536 111.032 79.528 112.12C80.52 113.208 81.976 113.752 83.896 113.752C85.816 113.752 87.288 113.208 88.312 112.12C89.336 111.032 89.848 109.48 89.848 107.464V87.304H98.056V107.416C98.056 110.424 97.416 112.968 96.136 115.048C94.856 117.128 93.128 118.696 90.952 119.752C88.808 120.808 86.408 121.336 83.752 121.336C81.096 121.336 78.712 120.824 76.6 119.8C74.52 118.744 72.872 117.176 71.656 115.096C70.44 112.984 69.832 110.424 69.832 107.416V87.304H78.04ZM111.788 87.304V121H103.58V87.304H111.788ZM135.784 75.4L122.92 129.976H115L127.864 75.4H135.784ZM147.07 87.304V107.464C147.07 109.48 147.566 111.032 148.558 112.12C149.55 113.208 151.006 113.752 152.926 113.752C154.846 113.752 156.318 113.208 157.342 112.12C158.366 111.032 158.878 109.48 158.878 107.464V87.304H167.086V107.416C167.086 110.424 166.446 112.968 165.166 115.048C163.886 117.128 162.158 118.696 159.982 119.752C157.838 120.808 155.438 121.336 152.782 121.336C150.126 121.336 147.742 120.824 145.63 119.8C143.55 118.744 141.902 117.176 140.686 115.096C139.47 112.984 138.862 110.424 138.862 107.416V87.304H147.07ZM193.25 121L186.386 110.68L180.338 121H171.026L181.826 103.864L170.786 87.304H180.338L187.106 97.48L193.058 87.304H202.37L191.666 104.296L202.802 121H193.25Z" fill="white"/>
<defs>
<filter id="filter0_d_651_280" x="0" y="0" width="271" height="216" filterUnits="userSpaceOnUse" color-interpolation-filters="sRGB">
<feFlood flood-opacity="0" result="BackgroundImageFix"/>
<feColorMatrix in="SourceAlpha" type="matrix" values="0 0 0 0 0 0 0 0 0 0 0 0 0 0 0 0 0 0 127 0" result="hardAlpha"/>
<feOffset dy="4"/>
<feGaussianBlur stdDeviation="4"/>
<feComposite in2="hardAlpha" operator="out"/>
<feColorMatrix type="matrix" values="0 0 0 0 0 0 0 0 0 0 0 0 0 0 0 0 0 0 0.36 0"/>
<feBlend mode="normal" in2="BackgroundImageFix" result="effect1_dropShadow_651_280"/>
<feBlend mode="normal" in="SourceGraphic" in2="effect1_dropShadow_651_280" result="shape"/>
</filter>
</defs>
</svg>
