<svg width="271" height="216" viewBox="0 0 271 216" fill="none" xmlns="http://www.w3.org/2000/svg">
<g filter="url(#filter0_d_651_285)">
<rect x="8" y="4" width="255" height="200" rx="8" fill="#413F3F"/>
</g>
<path d="M85.4674 87.304L76.6834 121H66.7474L61.3714 98.824L55.8034 121H45.8674L37.3234 87.304H46.1074L50.9554 111.832L56.9554 87.304H65.9794L71.7394 111.832L76.6354 87.304H85.4674ZM106.528 121L99.5198 108.28H97.5518V121H89.3438V87.304H103.12C105.776 87.304 108.032 87.768 109.888 88.696C111.776 89.624 113.184 90.904 114.112 92.536C115.04 94.136 115.504 95.928 115.504 97.912C115.504 100.152 114.864 102.152 113.584 103.912C112.336 105.672 110.48 106.92 108.016 107.656L115.792 121H106.528ZM97.5518 102.472H102.64C104.144 102.472 105.264 102.104 106 101.368C106.768 100.632 107.152 99.592 107.152 98.248C107.152 96.968 106.768 95.96 106 95.224C105.264 94.488 104.144 94.12 102.64 94.12H97.5518V102.472ZM128.624 87.304V121H120.416V87.304H128.624ZM158.573 87.304V93.88H149.645V121H141.437V93.88H132.509V87.304H158.573ZM170.66 87.304V121H162.452V87.304H170.66ZM206.512 121H198.304L184.576 100.216V121H176.368V87.304H184.576L198.304 108.184V87.304H206.512V121ZM234.59 97.96C233.982 96.84 233.102 95.992 231.95 95.416C230.83 94.808 229.502 94.504 227.966 94.504C225.31 94.504 223.182 95.384 221.582 97.144C219.982 98.872 219.182 101.192 219.182 104.104C219.182 107.208 220.014 109.64 221.678 111.4C223.374 113.128 225.694 113.992 228.638 113.992C230.654 113.992 232.35 113.48 233.726 112.456C235.134 111.432 236.158 109.96 236.798 108.04H226.382V101.992H244.238V109.624C243.63 111.672 242.59 113.576 241.118 115.336C239.678 117.096 237.838 118.52 235.598 119.608C233.358 120.696 230.83 121.24 228.014 121.24C224.686 121.24 221.71 120.52 219.086 119.08C216.494 117.608 214.462 115.576 212.99 112.984C211.55 110.392 210.83 107.432 210.83 104.104C210.83 100.776 211.55 97.816 212.99 95.224C214.462 92.6 216.494 90.568 219.086 89.128C221.678 87.656 224.638 86.92 227.966 86.92C231.998 86.92 235.39 87.896 238.142 89.848C240.926 91.8 242.766 94.504 243.662 97.96H234.59Z" fill="white"/>
<defs>
<filter id="filter0_d_651_285" x="0" y="0" width="271" height="216" filterUnits="userSpaceOnUse" color-interpolation-filters="sRGB">
<feFlood flood-opacity="0" result="BackgroundImageFix"/>
<feColorMatrix in="SourceAlpha" type="matrix" values="0 0 0 0 0 0 0 0 0 0 0 0 0 0 0 0 0 0 127 0" result="hardAlpha"/>
<feOffset dy="4"/>
<feGaussianBlur stdDeviation="4"/>
<feComposite in2="hardAlpha" operator="out"/>
<feColorMatrix type="matrix" values="0 0 0 0 0 0 0 0 0 0 0 0 0 0 0 0 0 0 0.36 0"/>
<feBlend mode="normal" in2="BackgroundImageFix" result="effect1_dropShadow_651_285"/>
<feBlend mode="normal" in="SourceGraphic" in2="effect1_dropShadow_651_285" result="shape"/>
</filter>
</defs>
</svg>
